<svg xmlns="http://www.w3.org/2000/svg" xmlns:xlink="http://www.w3.org/1999/xlink" width="1000" zoomAndPan="magnify" viewBox="0 0 750 749.999995" height="1000" preserveAspectRatio="xMidYMid meet" version="1.0"><defs><clipPath id="96ad617b10"><path d="M 227 226 L 525 226 L 525 524.4375 L 227 524.4375 Z M 227 226 " clip-rule="nonzero"/></clipPath></defs><g clip-path="url(#96ad617b10)"><path fill="#000000" d="M 356.367188 226.484375 C 353.886719 226.484375 351.40625 228.140625 351.40625 231.453125 L 351.40625 241.386719 C 351.40625 248.011719 361.328125 248.011719 361.328125 241.386719 L 361.328125 231.453125 C 361.328125 228.140625 358.847656 226.484375 356.367188 226.484375 Z M 294.472656 254.054688 C 290.742188 254.277344 287.675781 259.109375 291.1875 262.621094 L 298.203125 269.644531 C 302.878906 274.332031 309.894531 267.308594 305.214844 262.621094 L 298.203125 255.597656 C 297.03125 254.425781 295.714844 253.984375 294.472656 254.054688 Z M 418.269531 254.054688 C 417.027344 253.980469 415.710938 254.425781 414.539062 255.597656 L 407.523438 262.621094 C 402.847656 267.308594 409.859375 274.332031 414.539062 269.644531 L 421.554688 262.621094 C 425.0625 259.109375 421.996094 254.277344 418.269531 254.054688 Z M 356.367188 266.230469 C 329.355469 266.230469 311.726562 288.761719 311.726562 310.710938 C 311.726562 325.828125 317.925781 333.640625 325.167969 340.921875 C 328.789062 344.5625 332.714844 348.148438 335.929688 352.808594 C 338.375 356.347656 340.320312 360.578125 341.105469 365.5625 L 351.40625 365.5625 L 351.40625 347.453125 L 338.082031 334.402344 C 334.832031 331.328125 336.972656 325.859375 341.445312 325.828125 C 342.789062 325.808594 344.089844 326.335938 345.039062 327.292969 L 356.347656 338.363281 L 367.664062 327.292969 C 368.613281 326.335938 369.914062 325.808594 371.257812 325.828125 C 375.730469 325.863281 377.882812 331.328125 374.628906 334.402344 L 361.328125 347.414062 L 361.328125 365.5625 L 371.636719 365.5625 C 372.417969 360.578125 374.28125 356.472656 376.808594 352.808594 C 380.027344 348.148438 383.953125 344.5625 387.574219 340.921875 C 394.816406 333.640625 401.011719 326.253906 401.011719 310.710938 C 401.011719 288.761719 383.375 266.230469 356.367188 266.230469 Z M 356.367188 276.15625 C 363.128906 276.007812 363.128906 286.242188 356.367188 286.089844 C 349.261719 286.089844 342.511719 289.132812 337.800781 294.453125 C 333.460938 299.851562 325.558594 292.867188 330.371094 287.886719 C 336.960938 280.4375 346.429688 276.15625 356.367188 276.15625 Z M 326.589844 305.804688 C 329.332031 305.804688 331.550781 308.027344 331.550781 310.769531 C 331.550781 313.515625 329.332031 315.738281 326.589844 315.738281 C 323.851562 315.738281 321.628906 313.515625 321.628906 310.769531 C 321.628906 308.027344 323.851562 305.804688 326.589844 305.804688 Z M 276.992188 315.894531 C 270.375 315.894531 270.375 325.828125 276.992188 325.828125 L 286.914062 325.828125 C 293.53125 325.828125 293.53125 315.894531 286.914062 315.894531 Z M 425.828125 315.894531 C 419.210938 315.894531 419.210938 325.828125 425.828125 325.828125 L 435.75 325.828125 C 442.367188 325.828125 442.367188 315.894531 435.75 315.894531 Z M 480.445312 320.800781 C 477.703125 320.792969 475.472656 323.019531 475.464844 325.777344 L 475.464844 519.535156 C 475.472656 522.296875 477.703125 524.523438 480.445312 524.511719 L 520.09375 524.511719 C 522.835938 524.523438 525.070312 522.296875 525.074219 519.535156 L 525.074219 325.777344 C 525.070312 323.019531 522.835938 320.792969 520.09375 320.800781 Z M 308.015625 335.441406 C 307.734375 335.710938 307.507812 335.949219 307.230469 336.226562 C 280.054688 363.4375 280.207031 407.523438 307.210938 434.617188 C 334.214844 461.714844 378.339844 461.828125 405.519531 434.617188 C 432.695312 407.40625 432.574219 363.378906 405.488281 336.226562 C 405.214844 335.949219 404.964844 335.738281 404.6875 335.46875 C 402.886719 338.519531 400.851562 341.199219 398.757812 343.570312 C 421.800781 366.953125 421.625 404.4375 398.496094 427.59375 C 375.277344 450.839844 337.609375 450.894531 314.226562 427.59375 C 291.042969 404.488281 291.015625 366.789062 313.976562 343.523438 C 311.878906 341.148438 309.816406 338.492188 308.015625 335.441406 Z M 320.882812 350.710938 C 301.867188 370.191406 302.105469 401.335938 321.242188 420.570312 C 340.515625 439.945312 372.042969 440.019531 391.46875 420.570312 C 410.757812 401.261719 410.792969 370.144531 391.839844 350.722656 C 389.179688 353.386719 386.722656 355.914062 384.96875 358.453125 C 383.429688 360.679688 382.335938 362.882812 381.730469 365.601562 C 387.699219 366.222656 387.566406 375.5 381.171875 375.5 L 381.171875 390.398438 C 381.171875 396.855469 377.042969 402.355469 371.230469 404.398438 L 371.230469 410.277344 C 371.230469 418.449219 364.660156 425.167969 356.375 425.167969 C 348.117188 425.167969 341.527344 418.441406 341.523438 410.277344 C 341.523438 406.988281 341.523438 405.714844 341.523438 404.398438 C 335.710938 402.355469 331.566406 396.855469 331.5625 390.398438 C 331.5625 385.910156 331.5625 380.589844 331.5625 375.5 C 325.167969 375.5 324.898438 366.261719 331.039062 365.621094 C 330.433594 362.902344 329.300781 360.679688 327.761719 358.453125 C 326.007812 355.910156 323.546875 353.382812 320.882812 350.710938 Z M 341.484375 375.5 C 341.484375 380.511719 341.484375 385.40625 341.484375 390.398438 C 341.484375 393.085938 343.589844 395.347656 346.425781 395.347656 L 366.308594 395.347656 C 369.023438 395.347656 371.25 393.238281 371.25 390.398438 L 371.25 375.5 Z M 435.59375 380.464844 C 435.707031 382.117188 435.769531 383.777344 435.777344 385.433594 C 435.769531 409.554688 424.820312 432.367188 406.011719 447.445312 L 406.011719 519.535156 C 406.019531 522.296875 408.25 524.523438 410.992188 524.511719 L 450.640625 524.511719 C 453.386719 524.523438 455.617188 522.296875 455.621094 519.535156 L 455.621094 385.441406 C 455.617188 382.683594 453.386719 380.453125 450.640625 380.464844 Z M 351.445312 405.292969 C 351.445312 406.214844 351.445312 407.175781 351.445312 410.277344 C 351.445312 412.964844 353.550781 415.226562 356.375 415.226562 C 359.082031 415.226562 361.308594 413.117188 361.308594 410.277344 L 361.308594 405.292969 Z M 294.375 434.996094 L 232.449219 484.570312 C 225.359375 490.316406 225.992188 502.097656 232.925781 509.039062 C 239.847656 515.96875 251.5625 516.5625 257.3125 509.503906 L 306.902344 447.464844 C 302.277344 443.789062 298.074219 439.605469 294.375 434.996094 Z M 386.167969 459.054688 C 376.714844 462.902344 366.609375 464.890625 356.40625 464.90625 C 349.707031 464.871094 343.039062 463.988281 336.5625 462.277344 L 336.5625 519.535156 C 336.566406 522.296875 338.796875 524.523438 341.542969 524.511719 L 381.191406 524.511719 C 383.933594 524.523438 386.164062 522.296875 386.167969 519.535156 Z M 386.167969 459.054688 " fill-opacity="1" fill-rule="nonzero"/></g></svg>