<svg xmlns="http://www.w3.org/2000/svg" xmlns:xlink="http://www.w3.org/1999/xlink" width="1000" zoomAndPan="magnify" viewBox="0 0 750 749.999995" height="1000" preserveAspectRatio="xMidYMid meet" version="1.0"><defs><clipPath id="3dd4626aa5"><path d="M 238.3125 225 L 512 225 L 512 525 L 238.3125 525 Z M 238.3125 225 " clip-rule="nonzero"/></clipPath></defs><g clip-path="url(#3dd4626aa5)"><path fill="#000000" d="M 390.277344 373.398438 L 396.207031 359.378906 C 394.621094 357.921875 393.113281 356.382812 391.6875 354.769531 L 377.613281 360.5 C 376.207031 361.082031 374.746094 361.371094 373.222656 361.363281 C 372.066406 361.367188 370.933594 361.199219 369.824219 360.867188 C 368.71875 360.53125 367.683594 360.042969 366.722656 359.402344 C 365.761719 358.761719 364.914062 357.996094 364.179688 357.101562 C 363.445312 356.207031 362.859375 355.226562 362.417969 354.160156 L 355.75 337.832031 C 355.464844 337.121094 355.253906 336.390625 355.113281 335.640625 C 354.976562 334.890625 354.910156 334.132812 354.917969 333.367188 C 354.925781 332.601562 355.007812 331.847656 355.164062 331.097656 C 355.320312 330.351562 355.550781 329.625 355.847656 328.921875 C 356.148438 328.21875 356.511719 327.550781 356.941406 326.917969 C 357.371094 326.285156 357.855469 325.699219 358.402344 325.164062 C 358.945312 324.625 359.535156 324.144531 360.175781 323.722656 C 360.8125 323.300781 361.484375 322.945312 362.191406 322.65625 L 376.234375 316.925781 C 376.117188 314.769531 376.128906 312.613281 376.265625 310.457031 L 362.289062 304.601562 C 361.585938 304.304688 360.914062 303.945312 360.28125 303.519531 C 359.648438 303.089844 359.0625 302.609375 358.523438 302.066406 C 357.984375 301.523438 357.503906 300.9375 357.082031 300.300781 C 356.65625 299.667969 356.300781 298.996094 356.007812 298.289062 C 355.714844 297.585938 355.496094 296.859375 355.347656 296.109375 C 355.199219 295.359375 355.125 294.605469 355.125 293.839844 C 355.125 293.078125 355.199219 292.324219 355.347656 291.574219 C 355.496094 290.824219 355.714844 290.097656 356.007812 289.394531 L 362.898438 273.128906 C 363.339844 272.070312 363.929688 271.09375 364.660156 270.210938 C 365.394531 269.324219 366.238281 268.5625 367.199219 267.925781 C 368.15625 267.289062 369.1875 266.808594 370.289062 266.476562 C 371.394531 266.148438 372.519531 265.984375 373.671875 265.992188 C 375.207031 265.984375 376.679688 266.285156 378.09375 266.886719 L 392.136719 272.808594 C 393.578125 271.214844 395.105469 269.710938 396.722656 268.292969 C 396.90625 268.117188 390.074219 249.824219 390.179688 249.855469 C 380.980469 247.105469 371.585938 246.039062 362 246.652344 C 321.671875 249.152344 288.875 282 286.503906 322.273438 C 285.894531 332.363281 287.125 342.222656 290.191406 351.855469 C 292.628906 359.484375 296.144531 366.582031 300.738281 373.144531 C 307.941406 383.453125 318.566406 389.824219 326.242188 399.507812 C 336.917969 412.964844 337.828125 427.960938 337.828125 444.34375 L 396.496094 444.34375 L 396.496094 431.988281 C 396.496094 418.027344 402.296875 404.964844 412.078125 395.136719 L 396.558594 388.609375 C 395.859375 388.308594 395.191406 387.945312 394.558594 387.519531 C 393.929688 387.089844 393.34375 386.605469 392.808594 386.0625 C 392.269531 385.519531 391.792969 384.933594 391.371094 384.296875 C 390.949219 383.664062 390.59375 382.992188 390.300781 382.289062 C 390.011719 381.582031 389.789062 380.859375 389.640625 380.109375 C 389.492188 379.363281 389.414062 378.609375 389.414062 377.847656 C 389.410156 377.085938 389.484375 376.328125 389.628906 375.582031 C 389.773438 374.832031 389.988281 374.105469 390.277344 373.398438 Z M 315.195312 360.5 C 314.917969 360.648438 314.628906 360.769531 314.324219 360.863281 C 314.023438 360.957031 313.714844 361.019531 313.398438 361.050781 C 313.082031 361.082031 312.769531 361.082031 312.453125 361.050781 C 312.136719 361.019531 311.828125 360.960938 311.527344 360.867188 C 311.222656 360.773438 310.933594 360.652344 310.652344 360.503906 C 310.375 360.351562 310.113281 360.175781 309.871094 359.976562 C 309.625 359.773438 309.40625 359.550781 309.207031 359.304688 C 309.007812 359.058594 308.835938 358.792969 308.6875 358.511719 C 305.878906 353.273438 303.808594 347.753906 302.46875 341.960938 C 302.402344 341.65625 302.363281 341.34375 302.359375 341.03125 C 302.351562 340.714844 302.375 340.402344 302.429688 340.09375 C 302.484375 339.785156 302.566406 339.484375 302.679688 339.191406 C 302.796875 338.898438 302.9375 338.617188 303.105469 338.351562 C 303.273438 338.085938 303.464844 337.839844 303.683594 337.613281 C 303.898438 337.382812 304.136719 337.179688 304.394531 336.996094 C 304.648438 336.816406 304.921875 336.660156 305.210938 336.53125 C 305.496094 336.40625 305.792969 336.304688 306.101562 336.234375 C 306.40625 336.164062 306.71875 336.125 307.035156 336.117188 C 307.347656 336.105469 307.660156 336.128906 307.972656 336.179688 C 308.28125 336.234375 308.582031 336.3125 308.878906 336.425781 C 309.171875 336.535156 309.453125 336.675781 309.722656 336.839844 C 309.988281 337.007812 310.238281 337.199219 310.464844 337.414062 C 310.695312 337.628906 310.902344 337.863281 311.085938 338.117188 C 311.269531 338.371094 311.429688 338.644531 311.558594 338.929688 C 311.6875 339.214844 311.789062 339.511719 311.863281 339.816406 C 312.992188 344.785156 314.765625 349.511719 317.183594 354 C 317.332031 354.277344 317.453125 354.566406 317.542969 354.871094 C 317.632812 355.171875 317.695312 355.480469 317.726562 355.792969 C 317.753906 356.109375 317.753906 356.421875 317.722656 356.734375 C 317.691406 357.050781 317.628906 357.359375 317.535156 357.660156 C 317.445312 357.960938 317.324219 358.25 317.175781 358.527344 C 317.023438 358.808594 316.851562 359.066406 316.648438 359.3125 C 316.449219 359.554688 316.226562 359.777344 315.980469 359.976562 C 315.738281 360.175781 315.476562 360.351562 315.195312 360.5 Z M 344.914062 275.144531 C 325.261719 283.726562 311.734375 302.804688 310.515625 323.710938 C 310.496094 324.015625 310.449219 324.3125 310.375 324.605469 C 310.300781 324.902344 310.195312 325.183594 310.066406 325.460938 C 309.9375 325.734375 309.785156 325.996094 309.605469 326.242188 C 309.429688 326.488281 309.226562 326.714844 309.007812 326.921875 C 308.785156 327.128906 308.546875 327.316406 308.289062 327.476562 C 308.035156 327.640625 307.761719 327.777344 307.480469 327.886719 C 307.199219 328 306.90625 328.085938 306.609375 328.140625 C 306.308594 328.199219 306.007812 328.226562 305.707031 328.226562 L 305.417969 328.226562 C 305.101562 328.207031 304.789062 328.15625 304.484375 328.078125 C 304.175781 328 303.882812 327.890625 303.597656 327.75 C 303.3125 327.613281 303.042969 327.449219 302.792969 327.257812 C 302.539062 327.066406 302.308594 326.855469 302.097656 326.617188 C 301.890625 326.378906 301.703125 326.125 301.542969 325.851562 C 301.386719 325.582031 301.253906 325.292969 301.148438 324.996094 C 301.046875 324.695312 300.972656 324.390625 300.933594 324.078125 C 300.890625 323.765625 300.878906 323.449219 300.898438 323.136719 C 302.339844 298.644531 318.113281 276.363281 341.066406 266.339844 C 341.355469 266.214844 341.652344 266.121094 341.960938 266.050781 C 342.269531 265.984375 342.582031 265.949219 342.898438 265.941406 C 343.214844 265.9375 343.527344 265.960938 343.835938 266.019531 C 344.148438 266.074219 344.449219 266.160156 344.746094 266.273438 C 345.039062 266.390625 345.316406 266.53125 345.582031 266.703125 C 345.847656 266.871094 346.097656 267.066406 346.324219 267.285156 C 346.550781 267.503906 346.753906 267.742188 346.933594 268.003906 C 347.113281 268.261719 347.269531 268.535156 347.394531 268.824219 C 347.519531 269.113281 347.617188 269.410156 347.683594 269.71875 C 347.753906 270.027344 347.789062 270.339844 347.796875 270.652344 C 347.800781 270.96875 347.777344 271.28125 347.71875 271.59375 C 347.664062 271.902344 347.578125 272.203125 347.464844 272.496094 C 347.347656 272.792969 347.207031 273.070312 347.035156 273.335938 C 346.867188 273.601562 346.671875 273.847656 346.453125 274.074219 C 346.234375 274.300781 345.992188 274.503906 345.734375 274.6875 C 345.476562 274.867188 345.203125 275.019531 344.914062 275.144531 Z M 407.332031 456 L 407.332031 472.648438 L 326.992188 472.648438 L 326.992188 456 C 326.992188 455.558594 327.078125 455.136719 327.25 454.730469 C 327.417969 454.324219 327.660156 453.96875 327.972656 453.65625 C 328.285156 453.347656 328.648438 453.109375 329.054688 452.945312 C 329.464844 452.78125 329.886719 452.699219 330.328125 452.703125 L 404.03125 452.703125 C 404.46875 452.703125 404.890625 452.785156 405.292969 452.953125 C 405.699219 453.121094 406.054688 453.359375 406.367188 453.667969 C 406.675781 453.976562 406.914062 454.332031 407.082031 454.738281 C 407.25 455.140625 407.332031 455.5625 407.332031 456 Z M 326.992188 480.96875 L 407.332031 480.96875 L 407.332031 497.617188 C 407.332031 498.050781 407.25 498.472656 407.082031 498.878906 C 406.914062 499.28125 406.675781 499.640625 406.367188 499.949219 C 406.054688 500.257812 405.699219 500.496094 405.292969 500.664062 C 404.890625 500.828125 404.46875 500.914062 404.03125 500.914062 L 330.328125 500.914062 C 329.886719 500.917969 329.460938 500.835938 329.054688 500.671875 C 328.648438 500.503906 328.285156 500.265625 327.972656 499.957031 C 327.660156 499.648438 327.417969 499.289062 327.25 498.882812 C 327.078125 498.476562 326.992188 498.054688 326.992188 497.617188 Z M 340.203125 509.234375 L 394.125 509.234375 C 394.074219 510.289062 393.925781 511.328125 393.675781 512.351562 C 393.425781 513.378906 393.082031 514.371094 392.644531 515.332031 C 392.203125 516.289062 391.679688 517.199219 391.066406 518.058594 C 390.453125 518.917969 389.765625 519.710938 389 520.4375 C 388.238281 521.167969 387.410156 521.816406 386.519531 522.386719 C 385.632812 522.957031 384.699219 523.4375 383.71875 523.832031 C 382.738281 524.222656 381.726562 524.519531 380.691406 524.71875 C 379.652344 524.917969 378.609375 525.019531 377.550781 525.019531 L 356.777344 525.019531 C 355.71875 525.019531 354.671875 524.917969 353.636719 524.71875 C 352.597656 524.519531 351.589844 524.222656 350.609375 523.832031 C 349.628906 523.4375 348.695312 522.957031 347.804688 522.386719 C 346.917969 521.816406 346.089844 521.167969 345.324219 520.4375 C 344.5625 519.710938 343.875 518.917969 343.261719 518.058594 C 342.648438 517.199219 342.121094 516.289062 341.683594 515.332031 C 341.242188 514.371094 340.898438 513.378906 340.652344 512.351562 C 340.402344 511.328125 340.25 510.289062 340.203125 509.234375 Z M 509.535156 331.183594 L 489.789062 322.859375 C 490.773438 317.1875 490.804688 311.507812 489.882812 305.828125 L 509.695312 297.757812 C 510.109375 297.59375 510.472656 297.359375 510.792969 297.046875 C 511.109375 296.738281 511.355469 296.378906 511.53125 295.96875 C 511.707031 295.5625 511.796875 295.132812 511.800781 294.691406 C 511.804688 294.246094 511.722656 293.816406 511.554688 293.40625 L 504.917969 277.140625 C 504.753906 276.730469 504.515625 276.367188 504.207031 276.050781 C 503.894531 275.734375 503.53125 275.488281 503.125 275.316406 C 502.714844 275.148438 502.285156 275.0625 501.84375 275.0625 C 501.398438 275.0625 500.972656 275.148438 500.5625 275.320312 L 480.714844 283.382812 C 477.398438 278.675781 473.402344 274.644531 468.722656 271.285156 L 477.03125 251.5625 C 477.207031 251.15625 477.300781 250.730469 477.304688 250.285156 C 477.3125 249.839844 477.234375 249.414062 477.066406 249 C 476.902344 248.589844 476.664062 248.222656 476.351562 247.90625 C 476.039062 247.589844 475.675781 247.347656 475.265625 247.175781 L 459.078125 240.359375 C 458.667969 240.183594 458.238281 240.09375 457.792969 240.089844 C 457.347656 240.085938 456.917969 240.167969 456.503906 240.335938 C 456.09375 240.507812 455.730469 240.746094 455.414062 241.0625 C 455.097656 241.375 454.855469 241.738281 454.683594 242.152344 L 446.351562 261.839844 C 440.667969 260.882812 434.984375 260.863281 429.292969 261.773438 L 421.214844 241.957031 C 421.050781 241.546875 420.8125 241.183594 420.5 240.867188 C 420.1875 240.554688 419.828125 240.308594 419.417969 240.136719 C 419.007812 239.96875 418.582031 239.882812 418.136719 239.878906 C 417.695312 239.878906 417.265625 239.964844 416.855469 240.132812 L 400.570312 246.730469 C 400.160156 246.902344 399.796875 247.144531 399.480469 247.457031 C 399.164062 247.773438 398.921875 248.132812 398.746094 248.542969 C 398.574219 248.953125 398.484375 249.382812 398.476562 249.824219 C 398.472656 250.269531 398.550781 250.699219 398.710938 251.113281 L 399.609375 253.292969 L 406.789062 270.933594 C 402.074219 274.242188 398.035156 278.234375 394.671875 282.90625 L 374.957031 274.582031 C 374.546875 274.410156 374.117188 274.324219 373.671875 274.320312 C 373.230469 274.320312 372.800781 274.402344 372.390625 274.570312 C 371.976562 274.738281 371.613281 274.980469 371.296875 275.292969 C 370.980469 275.605469 370.738281 275.964844 370.5625 276.375 L 363.734375 292.542969 C 363.558594 292.949219 363.472656 293.378906 363.46875 293.824219 C 363.464844 294.269531 363.546875 294.695312 363.714844 295.109375 C 363.882812 295.519531 364.125 295.882812 364.441406 296.199219 C 364.753906 296.515625 365.117188 296.757812 365.53125 296.925781 L 385.246094 305.222656 C 384.261719 310.902344 384.230469 316.589844 385.148438 322.285156 L 365.339844 330.351562 C 364.925781 330.519531 364.5625 330.757812 364.246094 331.070312 C 363.929688 331.378906 363.6875 331.738281 363.511719 332.148438 C 363.335938 332.554688 363.246094 332.980469 363.242188 333.421875 C 363.234375 333.867188 363.316406 334.292969 363.476562 334.707031 L 370.113281 350.96875 C 370.285156 351.378906 370.523438 351.738281 370.835938 352.050781 C 371.148438 352.367188 371.507812 352.609375 371.917969 352.777344 C 372.324219 352.949219 372.75 353.035156 373.195312 353.039062 C 373.636719 353.042969 374.0625 352.960938 374.472656 352.792969 L 394.316406 344.726562 C 397.648438 349.425781 401.644531 353.472656 406.308594 356.859375 L 398.003906 376.546875 C 397.832031 376.957031 397.746094 377.382812 397.742188 377.828125 C 397.742188 378.273438 397.824219 378.699219 397.992188 379.109375 C 398.160156 379.523438 398.402344 379.886719 398.714844 380.203125 C 399.027344 380.515625 399.386719 380.761719 399.796875 380.933594 L 415.988281 387.753906 C 416.398438 387.921875 416.824219 388.011719 417.269531 388.011719 C 417.714844 388.011719 418.140625 387.929688 418.554688 387.761719 C 418.964844 387.59375 419.328125 387.355469 419.644531 387.042969 C 419.960938 386.730469 420.207031 386.371094 420.378906 385.960938 L 428.683594 366.238281 C 431.578125 366.777344 434.496094 367.042969 437.4375 367.039062 C 440.222656 367.039062 442.992188 366.816406 445.742188 366.367188 L 453.820312 386.152344 C 453.996094 386.5625 454.238281 386.921875 454.554688 387.238281 C 454.867188 387.550781 455.230469 387.792969 455.640625 387.96875 C 456.050781 388.140625 456.476562 388.230469 456.921875 388.238281 C 457.367188 388.246094 457.796875 388.167969 458.210938 388.007812 L 474.496094 381.347656 C 474.910156 381.183594 475.273438 380.945312 475.589844 380.632812 C 475.902344 380.320312 476.148438 379.960938 476.320312 379.554688 C 476.492188 379.144531 476.578125 378.71875 476.578125 378.273438 C 476.578125 377.832031 476.492188 377.40625 476.324219 376.996094 L 468.246094 357.210938 C 472.953125 353.875 477.003906 349.871094 480.394531 345.207031 L 500.109375 353.5 C 500.519531 353.675781 500.945312 353.765625 501.390625 353.773438 C 501.832031 353.777344 502.261719 353.699219 502.675781 353.535156 C 503.085938 353.367188 503.453125 353.128906 503.769531 352.820312 C 504.085938 352.507812 504.332031 352.148438 504.503906 351.738281 L 511.332031 335.574219 C 511.503906 335.164062 511.589844 334.734375 511.59375 334.289062 C 511.59375 333.847656 511.511719 333.417969 511.34375 333.007812 C 511.175781 332.59375 510.933594 332.230469 510.621094 331.914062 C 510.308594 331.597656 509.945312 331.355469 509.535156 331.183594 Z M 464.527344 315.976562 C 463.679688 326.703125 456.867188 336.941406 445.226562 340.339844 C 435.046875 343.308594 423.796875 339.820312 416.792969 331.984375 C 409.191406 323.484375 408.082031 310.421875 413.652344 300.582031 C 421.675781 286.394531 441.042969 282.375 454.066406 292.207031 C 461.941406 298.148438 465.222656 307.226562 464.527344 315.976562 Z M 326.480469 433.90625 L 316.285156 423.277344 C 312.851562 425.289062 309.183594 426.710938 305.289062 427.535156 L 304.96875 442.296875 C 304.960938 442.601562 304.898438 442.894531 304.773438 443.175781 C 304.648438 443.453125 304.472656 443.699219 304.25 443.910156 C 304.027344 444.121094 303.773438 444.28125 303.488281 444.386719 C 303.199219 444.496094 302.902344 444.546875 302.597656 444.535156 L 290.449219 444.28125 C 290.140625 444.269531 289.847656 444.203125 289.570312 444.078125 C 289.292969 443.953125 289.046875 443.777344 288.835938 443.554688 C 288.628906 443.335938 288.46875 443.082031 288.355469 442.796875 C 288.246094 442.511719 288.195312 442.214844 288.203125 441.910156 L 288.523438 427.152344 C 286.652344 426.691406 284.835938 426.074219 283.074219 425.296875 C 281.214844 424.492188 279.441406 423.53125 277.753906 422.414062 L 267.078125 432.625 C 266.851562 432.832031 266.597656 432.992188 266.3125 433.101562 C 266.027344 433.210938 265.734375 433.261719 265.429688 433.253906 C 265.125 433.25 264.832031 433.1875 264.550781 433.066406 C 264.269531 432.945312 264.023438 432.777344 263.808594 432.5625 L 255.40625 423.789062 C 255.199219 423.566406 255.039062 423.3125 254.929688 423.027344 C 254.820312 422.746094 254.769531 422.449219 254.777344 422.144531 C 254.78125 421.839844 254.84375 421.546875 254.964844 421.269531 C 255.085938 420.988281 255.253906 420.738281 255.46875 420.523438 L 266.144531 410.3125 C 264.140625 406.890625 262.722656 403.238281 261.886719 399.363281 L 247.105469 399.011719 C 246.800781 399.007812 246.507812 398.945312 246.230469 398.824219 C 245.949219 398.703125 245.703125 398.53125 245.492188 398.3125 C 245.28125 398.09375 245.121094 397.839844 245.011719 397.558594 C 244.902344 397.273438 244.851562 396.976562 244.863281 396.675781 L 245.117188 384.539062 C 245.128906 384.234375 245.195312 383.945312 245.320312 383.664062 C 245.449219 383.386719 245.621094 383.144531 245.84375 382.933594 C 246.066406 382.722656 246.320312 382.5625 246.605469 382.453125 C 246.890625 382.34375 247.1875 382.292969 247.492188 382.300781 L 262.269531 382.621094 C 263.246094 378.757812 264.828125 375.160156 267.015625 371.832031 L 256.820312 361.203125 C 256.605469 360.980469 256.441406 360.726562 256.328125 360.4375 C 256.214844 360.148438 256.160156 359.851562 256.167969 359.542969 C 256.171875 359.234375 256.238281 358.9375 256.363281 358.652344 C 256.488281 358.371094 256.660156 358.121094 256.882812 357.910156 L 265.636719 349.550781 C 265.859375 349.339844 266.117188 349.179688 266.402344 349.070312 C 266.691406 348.960938 266.988281 348.90625 267.296875 348.914062 C 267.605469 348.917969 267.902344 348.984375 268.183594 349.105469 C 268.46875 349.226562 268.71875 349.398438 268.933594 349.617188 L 279.128906 360.308594 C 280.539062 359.453125 282.015625 358.730469 283.550781 358.132812 C 285.59375 363.699219 288.191406 368.992188 291.34375 374.011719 C 290.769531 374.183594 290.214844 374.398438 289.675781 374.652344 C 288.796875 375.0625 287.953125 375.539062 287.144531 376.082031 C 286.339844 376.625 285.578125 377.222656 284.863281 377.882812 C 284.148438 378.539062 283.492188 379.25 282.886719 380.007812 C 282.28125 380.769531 281.738281 381.570312 281.257812 382.414062 C 280.773438 383.257812 280.363281 384.132812 280.015625 385.039062 C 279.667969 385.945312 279.394531 386.871094 279.191406 387.820312 C 278.988281 388.769531 278.859375 389.730469 278.804688 390.699219 C 278.746094 391.667969 278.765625 392.636719 278.859375 393.601562 C 278.953125 394.566406 279.121094 395.519531 279.363281 396.460938 C 279.601562 397.402344 279.914062 398.316406 280.296875 399.210938 C 280.679688 400.101562 281.125 400.960938 281.640625 401.785156 C 282.15625 402.609375 282.730469 403.386719 283.363281 404.121094 C 284 404.859375 284.6875 405.539062 285.425781 406.167969 C 286.164062 406.800781 286.949219 407.367188 287.777344 407.878906 C 288.605469 408.386719 289.464844 408.828125 290.363281 409.207031 C 291.257812 409.582031 292.175781 409.886719 293.121094 410.121094 C 301.308594 412.164062 311.679688 407.71875 314.9375 399.59375 C 318.554688 402.824219 321.535156 406.558594 323.882812 410.796875 C 327.957031 418.109375 329.492188 425.9375 329.492188 434.234375 C 329.265625 434.394531 329.015625 434.511719 328.746094 434.582031 C 328.476562 434.652344 328.203125 434.671875 327.925781 434.644531 C 327.648438 434.613281 327.382812 434.535156 327.132812 434.40625 C 326.886719 434.28125 326.667969 434.113281 326.480469 433.90625 Z M 253.1875 260.222656 C 253.351562 259.953125 253.539062 259.703125 253.753906 259.472656 C 253.96875 259.238281 254.203125 259.03125 254.460938 258.847656 C 254.714844 258.660156 254.984375 258.503906 255.273438 258.371094 C 255.558594 258.238281 255.855469 258.136719 256.164062 258.0625 C 256.46875 257.988281 256.78125 257.945312 257.097656 257.933594 C 257.414062 257.921875 257.726562 257.941406 258.039062 257.988281 C 258.351562 258.039062 258.652344 258.121094 258.949219 258.230469 C 259.246094 258.339844 259.527344 258.476562 259.796875 258.640625 L 283.585938 273.214844 C 283.859375 273.378906 284.113281 273.566406 284.347656 273.78125 C 284.585938 273.996094 284.796875 274.230469 284.984375 274.484375 C 285.171875 274.738281 285.335938 275.011719 285.46875 275.296875 C 285.605469 275.585938 285.710938 275.882812 285.785156 276.191406 C 285.859375 276.5 285.90625 276.8125 285.917969 277.128906 C 285.933594 277.445312 285.914062 277.761719 285.867188 278.074219 C 285.816406 278.386719 285.738281 278.695312 285.628906 278.992188 C 285.519531 279.289062 285.378906 279.574219 285.214844 279.84375 C 285.046875 280.113281 284.855469 280.367188 284.640625 280.597656 C 284.425781 280.832031 284.1875 281.039062 283.929688 281.226562 C 283.671875 281.410156 283.398438 281.570312 283.109375 281.703125 C 282.820312 281.832031 282.523438 281.9375 282.210938 282.007812 C 281.902344 282.082031 281.589844 282.121094 281.273438 282.132812 C 280.953125 282.140625 280.640625 282.121094 280.324219 282.070312 C 280.011719 282.015625 279.707031 281.933594 279.410156 281.824219 C 279.113281 281.710938 278.828125 281.570312 278.558594 281.402344 L 254.769531 266.824219 C 254.5 266.660156 254.25 266.46875 254.019531 266.253906 C 253.789062 266.042969 253.578125 265.808594 253.394531 265.550781 C 253.207031 265.296875 253.050781 265.027344 252.917969 264.738281 C 252.785156 264.453125 252.683594 264.15625 252.609375 263.851562 C 252.535156 263.542969 252.492188 263.234375 252.480469 262.917969 C 252.46875 262.605469 252.488281 262.289062 252.535156 261.980469 C 252.585938 261.667969 252.664062 261.363281 252.773438 261.070312 C 252.882812 260.773438 253.019531 260.492188 253.1875 260.222656 Z M 284.3125 232.777344 C 284.164062 232.5 284.042969 232.210938 283.949219 231.910156 C 283.855469 231.609375 283.792969 231.304688 283.757812 230.988281 C 283.726562 230.675781 283.726562 230.363281 283.753906 230.050781 C 283.785156 229.734375 283.84375 229.425781 283.933594 229.125 C 284.023438 228.824219 284.140625 228.53125 284.289062 228.253906 C 284.433594 227.976562 284.609375 227.714844 284.808594 227.46875 C 285.003906 227.222656 285.226562 227 285.46875 226.796875 C 285.710938 226.597656 285.972656 226.421875 286.25 226.269531 C 286.527344 226.121094 286.816406 226 287.117188 225.90625 C 287.417969 225.8125 287.726562 225.75 288.039062 225.714844 C 288.355469 225.683594 288.667969 225.679688 288.980469 225.710938 C 289.296875 225.738281 289.605469 225.796875 289.90625 225.886719 C 290.210938 225.976562 290.5 226.09375 290.78125 226.242188 C 291.058594 226.386719 291.320312 226.5625 291.566406 226.757812 C 291.8125 226.957031 292.035156 227.179688 292.238281 227.421875 C 292.441406 227.664062 292.617188 227.921875 292.765625 228.199219 L 306.074219 252.703125 C 306.226562 252.980469 306.347656 253.269531 306.441406 253.570312 C 306.535156 253.871094 306.597656 254.175781 306.632812 254.492188 C 306.664062 254.804688 306.667969 255.117188 306.636719 255.433594 C 306.609375 255.746094 306.550781 256.054688 306.460938 256.355469 C 306.371094 256.660156 306.25 256.949219 306.105469 257.230469 C 305.957031 257.507812 305.785156 257.769531 305.585938 258.015625 C 305.386719 258.261719 305.167969 258.484375 304.921875 258.683594 C 304.679688 258.886719 304.421875 259.0625 304.144531 259.210938 C 303.867188 259.363281 303.574219 259.484375 303.273438 259.578125 C 302.972656 259.671875 302.664062 259.734375 302.351562 259.769531 C 302.035156 259.800781 301.722656 259.800781 301.410156 259.773438 C 301.09375 259.746094 300.785156 259.6875 300.484375 259.597656 C 300.179688 259.507812 299.890625 259.386719 299.609375 259.242188 C 299.328125 259.09375 299.066406 258.921875 298.824219 258.722656 C 298.578125 258.523438 298.351562 258.304688 298.152344 258.0625 C 297.949219 257.820312 297.773438 257.558594 297.621094 257.28125 Z M 270.972656 309.847656 L 243.070312 309.101562 C 242.753906 309.09375 242.445312 309.054688 242.136719 308.984375 C 241.828125 308.914062 241.53125 308.816406 241.242188 308.6875 C 240.953125 308.558594 240.679688 308.40625 240.421875 308.222656 C 240.164062 308.039062 239.925781 307.835938 239.710938 307.605469 C 239.492188 307.378906 239.300781 307.128906 239.132812 306.863281 C 238.964844 306.597656 238.824219 306.316406 238.710938 306.023438 C 238.597656 305.726562 238.515625 305.425781 238.460938 305.113281 C 238.40625 304.804688 238.382812 304.492188 238.394531 304.175781 C 238.398438 303.859375 238.433594 303.546875 238.503906 303.238281 C 238.570312 302.929688 238.667969 302.628906 238.792969 302.339844 C 238.921875 302.050781 239.078125 301.777344 239.257812 301.519531 C 239.441406 301.261719 239.648438 301.023438 239.875 300.804688 C 240.105469 300.585938 240.355469 300.394531 240.625 300.226562 C 240.890625 300.058594 241.175781 299.917969 241.472656 299.808594 C 241.765625 299.695312 242.070312 299.613281 242.382812 299.5625 C 242.695312 299.511719 243.011719 299.492188 243.328125 299.503906 L 271.226562 300.25 C 271.539062 300.257812 271.851562 300.296875 272.15625 300.363281 C 272.460938 300.433594 272.757812 300.53125 273.042969 300.65625 C 273.328125 300.78125 273.601562 300.9375 273.855469 301.113281 C 274.113281 301.292969 274.347656 301.496094 274.566406 301.722656 C 274.78125 301.945312 274.976562 302.191406 275.144531 302.453125 C 275.3125 302.71875 275.457031 302.992188 275.570312 303.285156 C 275.683594 303.574219 275.769531 303.875 275.828125 304.183594 C 275.882812 304.488281 275.910156 304.800781 275.90625 305.113281 C 275.902344 305.425781 275.867188 305.734375 275.804688 306.039062 C 275.738281 306.34375 275.644531 306.640625 275.523438 306.929688 C 275.402344 307.214844 275.25 307.488281 275.074219 307.746094 C 274.898438 308.007812 274.699219 308.246094 274.476562 308.464844 C 274.253906 308.683594 274.011719 308.878906 273.753906 309.054688 C 273.492188 309.226562 273.214844 309.371094 272.925781 309.492188 C 272.636719 309.609375 272.339844 309.699219 272.03125 309.757812 C 271.726562 309.820312 271.414062 309.851562 271.101562 309.851562 C 271.058594 309.847656 271.015625 309.847656 270.972656 309.847656 Z M 270.972656 309.847656 " fill-opacity="1" fill-rule="nonzero"/></g></svg>