<svg xmlns="http://www.w3.org/2000/svg" xmlns:xlink="http://www.w3.org/1999/xlink" width="1000" zoomAndPan="magnify" viewBox="0 0 750 749.999995" height="1000" preserveAspectRatio="xMidYMid meet" version="1.0"><defs><clipPath id="8ac675aee0"><path d="M 217.75 222.664062 L 532 222.664062 L 532 527 L 217.75 527 Z M 217.75 222.664062 " clip-rule="nonzero"/></clipPath></defs><g clip-path="url(#8ac675aee0)"><path fill="#000000" d="M 271.660156 284.355469 C 301.433594 284.355469 325.566406 308.492188 325.566406 338.273438 C 325.566406 368.058594 301.433594 392.195312 271.660156 392.195312 C 241.882812 392.195312 217.75 368.058594 217.75 338.273438 C 217.75 308.492188 241.882812 284.355469 271.660156 284.355469 Z M 303.640625 367.921875 C 310.855469 360.140625 315.261719 349.722656 315.261719 338.273438 C 315.261719 314.183594 295.742188 294.660156 271.660156 294.660156 C 247.574219 294.660156 228.054688 314.183594 228.054688 338.273438 C 228.054688 349.722656 232.464844 360.140625 239.675781 367.921875 C 244.441406 354.867188 256.964844 345.542969 271.660156 345.542969 C 286.351562 345.542969 298.878906 354.867188 303.640625 367.921875 Z M 271.660156 342.984375 C 262.1875 342.984375 254.441406 335.234375 254.441406 325.757812 C 254.441406 316.285156 262.1875 308.539062 271.660156 308.539062 C 281.132812 308.539062 288.878906 316.285156 288.878906 325.757812 C 288.878906 335.234375 281.132812 342.984375 271.660156 342.984375 Z M 387.160156 230.832031 C 391.464844 231.855469 395.570312 233.558594 399.34375 235.882812 L 407.257812 232.359375 L 416.582031 241.6875 L 413.078125 249.605469 C 415.402344 253.378906 417.101562 257.484375 418.125 261.804688 L 426.199219 264.910156 L 426.199219 278.105469 L 418.125 281.214844 C 417.101562 285.519531 415.386719 289.625 413.078125 293.398438 L 416.582031 301.316406 L 407.257812 310.640625 L 399.34375 307.132812 C 395.582031 309.460938 391.464844 311.160156 387.160156 312.183594 L 384.054688 320.261719 L 370.863281 320.261719 L 367.757812 312.183594 C 363.4375 311.160156 359.335938 309.445312 355.5625 307.132812 L 347.644531 310.640625 L 338.320312 301.316406 L 341.839844 293.398438 C 339.515625 289.636719 337.816406 285.519531 336.78125 281.214844 L 328.703125 278.105469 L 328.703125 264.910156 L 336.78125 261.804688 C 337.816406 257.484375 339.515625 253.378906 341.839844 249.605469 L 338.320312 241.6875 L 347.644531 232.359375 L 355.5625 235.882812 C 359.335938 233.558594 363.4375 231.855469 367.742188 230.832031 L 370.863281 222.742188 L 384.054688 222.742188 Z M 377.453125 248.492188 C 364.742188 248.492188 354.445312 258.785156 354.445312 271.5 C 354.445312 284.214844 364.742188 294.527344 377.453125 294.527344 C 390.164062 294.527344 400.472656 284.214844 400.472656 271.5 C 400.472656 258.785156 390.164062 248.492188 377.453125 248.492188 Z M 483.253906 387.042969 C 456.40625 387.042969 434.507812 365.136719 434.507812 338.28125 C 434.507812 311.429688 456.40625 289.523438 483.253906 289.523438 C 510.101562 289.523438 532 311.429688 532 338.28125 C 532 365.136719 510.101562 387.042969 483.253906 387.042969 Z M 478.101562 309.808594 C 477.140625 310.039062 476.199219 310.335938 475.292969 310.691406 C 468.558594 313.34375 463.71875 319.160156 464.105469 327.0625 C 464.59375 337.355469 473.796875 341.777344 482.476562 343.191406 C 484.722656 343.558594 487.132812 344.085938 489.257812 345.050781 C 491.445312 346.046875 493.355469 347.546875 493.6875 350.3125 L 493.6875 350.320312 C 493.941406 352.414062 492.957031 353.898438 491.515625 354.890625 C 489.351562 356.382812 486.414062 357.027344 483.773438 357.085938 L 483.761719 357.085938 C 478.910156 357.207031 473.859375 355.128906 472.625 350.164062 C 471.9375 347.40625 469.140625 345.722656 466.378906 346.410156 C 463.621094 347.097656 461.9375 349.894531 462.625 352.652344 C 464.5625 360.433594 470.8125 365.28125 478.101562 366.84375 L 478.101562 369.144531 C 478.101562 371.988281 480.410156 374.296875 483.253906 374.296875 C 486.097656 374.296875 488.40625 371.988281 488.40625 369.144531 L 488.40625 366.917969 C 497.039062 365.261719 505.152344 359.289062 503.917969 349.082031 C 502.652344 338.558594 492.992188 334.476562 484.140625 333.019531 L 484.132812 333.019531 C 482.054688 332.679688 479.855469 332.164062 477.957031 331.238281 C 476.101562 330.328125 474.511719 328.980469 474.398438 326.574219 L 474.398438 326.5625 C 474.242188 323.445312 476.40625 321.328125 479.0625 320.285156 C 483.796875 318.421875 490.394531 319.589844 492.863281 325.472656 C 493.964844 328.097656 496.988281 329.332031 499.609375 328.230469 C 502.230469 327.128906 503.464844 324.109375 502.363281 321.484375 C 499.589844 314.867188 494.230469 311.09375 488.40625 309.75 L 488.40625 307.4375 C 488.40625 304.59375 486.097656 302.285156 483.253906 302.285156 C 480.410156 302.285156 478.101562 304.59375 478.101562 307.4375 Z M 251.164062 454.484375 C 251.183594 454.515625 251.199219 454.546875 251.214844 454.574219 L 279.640625 504.808594 C 279.65625 504.835938 279.667969 504.863281 279.683594 504.890625 L 285.929688 515.929688 C 286.484375 516.914062 286.144531 518.175781 285.164062 518.730469 L 285.15625 518.734375 L 271.453125 526.503906 C 270.46875 527.054688 269.210938 526.714844 268.65625 525.734375 L 268.652344 525.730469 L 228.320312 454.445312 C 227.761719 453.460938 228.101562 452.207031 229.078125 451.65625 L 229.082031 451.652344 L 242.808594 443.878906 C 243.792969 443.324219 245.050781 443.683594 245.609375 444.667969 Z M 240.71875 452.019531 C 237.605469 452.464844 235.457031 455.355469 235.902344 458.46875 C 236.363281 461.582031 239.253906 463.75 242.367188 463.289062 C 245.480469 462.84375 247.628906 459.933594 247.183594 456.820312 C 246.722656 453.707031 243.832031 451.554688 240.71875 452.019531 Z M 286.070312 495.25 L 262.671875 453.894531 L 298.414062 433.195312 C 306.660156 428.425781 314.945312 424.640625 324 427.582031 L 324.003906 427.582031 C 335.773438 431.398438 354.964844 439.535156 374.570312 443.136719 C 379.011719 444.726562 381.882812 449.15625 380.652344 453.734375 C 379.4375 458.269531 375.550781 460.441406 370.261719 459.859375 C 359.503906 457.632812 349.511719 454.367188 338.429688 451.386719 C 335.683594 450.648438 332.855469 452.277344 332.117188 455.027344 C 331.378906 457.773438 333.011719 460.601562 335.753906 461.339844 C 347.117188 464.394531 368.546875 470.023438 368.617188 470.035156 C 368.617188 470.035156 374.699219 471.027344 374.703125 471.027344 C 383.730469 472.464844 392.011719 471.1875 399.914062 466.582031 L 448.816406 438.09375 C 460.058594 431.542969 467.800781 430.167969 472.84375 432.265625 C 476.679688 433.863281 478.195312 437.707031 478.097656 441.335938 C 478.015625 444.398438 476.875 447.484375 474.46875 448.964844 L 385.730469 503.613281 L 385.726562 503.617188 C 378.820312 507.878906 371.25 508.84375 363.414062 506.75 L 299.050781 489.496094 C 297.730469 489.144531 296.324219 489.328125 295.140625 490.011719 Z M 382.605469 378.789062 C 382.605469 381.632812 380.296875 383.945312 377.453125 383.945312 C 374.609375 383.945312 372.300781 381.632812 372.300781 378.789062 L 372.300781 343.742188 C 372.300781 340.898438 374.609375 338.585938 377.453125 338.585938 C 380.296875 338.585938 382.605469 340.898438 382.605469 343.742188 Z M 396.175781 397.96875 C 393.945312 399.730469 390.703125 399.355469 388.9375 397.125 C 387.175781 394.894531 387.550781 391.648438 389.78125 389.886719 L 419.894531 366.054688 C 422.121094 364.289062 425.367188 364.667969 427.128906 366.898438 C 428.894531 369.128906 428.515625 372.371094 426.285156 374.136719 Z M 365.121094 389.886719 C 367.351562 391.648438 367.730469 394.894531 365.964844 397.125 C 364.203125 399.355469 360.960938 399.730469 358.730469 397.96875 L 328.617188 374.136719 C 326.390625 372.371094 326.011719 369.128906 327.773438 366.898438 C 329.539062 364.667969 332.78125 364.289062 335.011719 366.054688 Z M 365.121094 389.886719 " fill-opacity="1" fill-rule="evenodd"/></g></svg>