<svg xmlns="http://www.w3.org/2000/svg" xmlns:xlink="http://www.w3.org/1999/xlink" width="1000" zoomAndPan="magnify" viewBox="0 0 750 749.999995" height="1000" preserveAspectRatio="xMidYMid meet" version="1.0"><defs><clipPath id="a806f26cbf"><path d="M 225 225 L 525 225 L 525 525 L 225 525 Z M 225 225 " clip-rule="nonzero"/></clipPath></defs><g clip-path="url(#a806f26cbf)"><path fill="#000000" d="M 272.382812 438.15625 L 225.015625 484.578125 L 225.015625 351.316406 L 272.382812 351.316406 Z M 351.332031 409.105469 L 326.539062 387.949219 L 303.960938 408.789062 L 303.960938 288.15625 L 351.332031 288.15625 Z M 430.277344 382.894531 L 382.910156 430.261719 L 382.910156 225 L 430.277344 225 Z M 474.644531 379.894531 L 446.066406 351.316406 L 525.015625 351.316406 L 525.015625 430.261719 L 496.75 402 L 382.910156 514.894531 L 328.121094 467.210938 L 268.4375 525 L 225.015625 525 L 327.171875 424.894531 L 382.910156 471.949219 " fill-opacity="1" fill-rule="nonzero"/></g></svg>