<svg xmlns="http://www.w3.org/2000/svg" xmlns:xlink="http://www.w3.org/1999/xlink" width="1000" zoomAndPan="magnify" viewBox="0 0 750 749.999995" height="1000" preserveAspectRatio="xMidYMid meet" version="1.0"><defs><clipPath id="b55d8b7163"><path d="M 409 230.0625 L 460 230.0625 L 460 281 L 409 281 Z M 409 230.0625 " clip-rule="nonzero"/></clipPath><clipPath id="bd5d91e2af"><path d="M 290 230.0625 L 341 230.0625 L 341 281 L 290 281 Z M 290 230.0625 " clip-rule="nonzero"/></clipPath><clipPath id="552676286b"><path d="M 225 330 L 280 330 L 280 520.3125 L 225 520.3125 Z M 225 330 " clip-rule="nonzero"/></clipPath><clipPath id="069549e1ab"><path d="M 250 390 L 336 390 L 336 520.3125 L 250 520.3125 Z M 250 390 " clip-rule="nonzero"/></clipPath><clipPath id="de1d4a37bf"><path d="M 414 390 L 500 390 L 500 520.3125 L 414 520.3125 Z M 414 390 " clip-rule="nonzero"/></clipPath><clipPath id="3d3cf37928"><path d="M 469 330 L 525 330 L 525 520.3125 L 469 520.3125 Z M 469 330 " clip-rule="nonzero"/></clipPath></defs><path fill="#000000" d="M 419.980469 395.203125 L 419.980469 350.164062 C 419.980469 325.34375 399.789062 305.128906 375 305.128906 C 350.210938 305.128906 330.019531 325.34375 330.019531 350.164062 L 330.019531 395.203125 C 330.019531 397.957031 332.269531 400.210938 335.015625 400.210938 L 414.984375 400.210938 C 417.730469 400.210938 419.980469 397.957031 419.980469 395.203125 Z M 419.980469 395.203125 " fill-opacity="1" fill-rule="nonzero"/><path fill="#000000" d="M 429.976562 350.164062 L 429.976562 380.191406 L 474.957031 380.191406 C 477.707031 380.191406 479.953125 377.941406 479.953125 375.1875 L 479.953125 330.148438 C 479.953125 305.328125 459.761719 285.109375 434.972656 285.109375 C 421.082031 285.109375 408.683594 291.464844 400.4375 301.375 C 417.980469 310.582031 429.976562 328.996094 429.976562 350.164062 Z M 429.976562 350.164062 " fill-opacity="1" fill-rule="nonzero"/><path fill="#000000" d="M 275.042969 380.191406 L 320.023438 380.191406 L 320.023438 350.164062 C 320.023438 328.996094 332.019531 310.582031 349.5625 301.375 C 341.316406 291.464844 328.917969 285.109375 315.027344 285.109375 C 290.238281 285.109375 270.046875 305.328125 270.046875 330.148438 L 270.046875 375.1875 C 270.046875 377.941406 272.292969 380.191406 275.042969 380.191406 Z M 275.042969 380.191406 " fill-opacity="1" fill-rule="nonzero"/><path fill="#000000" d="M 399.988281 275.101562 C 399.988281 275.921875 399.949219 276.738281 399.867188 277.554688 C 399.789062 278.371094 399.667969 279.179688 399.507812 279.984375 C 399.347656 280.785156 399.152344 281.582031 398.914062 282.363281 C 398.675781 283.148438 398.398438 283.917969 398.085938 284.675781 C 397.773438 285.433594 397.425781 286.171875 397.039062 286.894531 C 396.652344 287.617188 396.234375 288.320312 395.777344 289.003906 C 395.324219 289.683594 394.835938 290.339844 394.316406 290.976562 C 393.796875 291.609375 393.25 292.214844 392.671875 292.792969 C 392.089844 293.375 391.484375 293.921875 390.851562 294.441406 C 390.21875 294.964844 389.5625 295.449219 388.882812 295.90625 C 388.203125 296.359375 387.5 296.78125 386.78125 297.167969 C 386.058594 297.554688 385.320312 297.90625 384.5625 298.21875 C 383.808594 298.53125 383.039062 298.808594 382.253906 299.046875 C 381.472656 299.285156 380.679688 299.480469 379.875 299.640625 C 379.074219 299.800781 378.265625 299.921875 377.449219 300.003906 C 376.636719 300.082031 375.820312 300.121094 375 300.121094 C 374.179688 300.121094 373.363281 300.082031 372.550781 300.003906 C 371.734375 299.921875 370.925781 299.800781 370.125 299.640625 C 369.320312 299.480469 368.527344 299.285156 367.746094 299.046875 C 366.960938 298.808594 366.191406 298.53125 365.4375 298.21875 C 364.679688 297.90625 363.941406 297.554688 363.21875 297.167969 C 362.5 296.78125 361.796875 296.359375 361.117188 295.90625 C 360.4375 295.449219 359.78125 294.964844 359.148438 294.441406 C 358.515625 293.921875 357.910156 293.375 357.328125 292.792969 C 356.75 292.214844 356.203125 291.609375 355.683594 290.976562 C 355.164062 290.339844 354.675781 289.683594 354.222656 289.003906 C 353.765625 288.320312 353.347656 287.617188 352.960938 286.894531 C 352.574219 286.171875 352.226562 285.433594 351.914062 284.675781 C 351.601562 283.917969 351.324219 283.148438 351.085938 282.363281 C 350.847656 281.582031 350.652344 280.785156 350.492188 279.984375 C 350.332031 279.179688 350.210938 278.371094 350.132812 277.554688 C 350.050781 276.738281 350.011719 275.921875 350.011719 275.101562 C 350.011719 274.28125 350.050781 273.464844 350.132812 272.648438 C 350.210938 271.832031 350.332031 271.023438 350.492188 270.21875 C 350.652344 269.417969 350.847656 268.621094 351.085938 267.839844 C 351.324219 267.054688 351.601562 266.28125 351.914062 265.527344 C 352.226562 264.769531 352.574219 264.027344 352.960938 263.304688 C 353.347656 262.582031 353.765625 261.882812 354.222656 261.199219 C 354.675781 260.519531 355.164062 259.859375 355.683594 259.226562 C 356.203125 258.59375 356.75 257.988281 357.328125 257.410156 C 357.910156 256.828125 358.515625 256.277344 359.148438 255.757812 C 359.78125 255.238281 360.4375 254.75 361.117188 254.296875 C 361.796875 253.839844 362.5 253.421875 363.21875 253.035156 C 363.941406 252.648438 364.679688 252.296875 365.4375 251.984375 C 366.191406 251.671875 366.960938 251.394531 367.746094 251.15625 C 368.527344 250.917969 369.320312 250.71875 370.125 250.558594 C 370.925781 250.402344 371.734375 250.28125 372.550781 250.199219 C 373.363281 250.121094 374.179688 250.078125 375 250.078125 C 375.820312 250.078125 376.636719 250.121094 377.449219 250.199219 C 378.265625 250.28125 379.074219 250.402344 379.875 250.558594 C 380.679688 250.71875 381.472656 250.917969 382.253906 251.15625 C 383.039062 251.394531 383.808594 251.671875 384.5625 251.984375 C 385.320312 252.296875 386.058594 252.648438 386.78125 253.035156 C 387.5 253.421875 388.203125 253.839844 388.882812 254.296875 C 389.5625 254.75 390.21875 255.238281 390.851562 255.757812 C 391.484375 256.277344 392.089844 256.828125 392.671875 257.410156 C 393.25 257.988281 393.796875 258.59375 394.316406 259.226562 C 394.835938 259.859375 395.324219 260.519531 395.777344 261.199219 C 396.234375 261.882812 396.652344 262.582031 397.039062 263.304688 C 397.425781 264.027344 397.773438 264.769531 398.085938 265.527344 C 398.398438 266.28125 398.675781 267.054688 398.914062 267.839844 C 399.152344 268.621094 399.347656 269.417969 399.507812 270.21875 C 399.667969 271.023438 399.789062 271.832031 399.867188 272.648438 C 399.949219 273.464844 399.988281 274.28125 399.988281 275.101562 Z M 399.988281 275.101562 " fill-opacity="1" fill-rule="nonzero"/><g clip-path="url(#b55d8b7163)"><path fill="#000000" d="M 459.964844 255.085938 C 459.964844 255.902344 459.921875 256.722656 459.84375 257.535156 C 459.761719 258.351562 459.644531 259.160156 459.484375 259.964844 C 459.324219 260.769531 459.125 261.5625 458.886719 262.347656 C 458.648438 263.132812 458.375 263.902344 458.0625 264.660156 C 457.746094 265.417969 457.398438 266.15625 457.011719 266.878906 C 456.625 267.601562 456.207031 268.304688 455.75 268.984375 C 455.296875 269.667969 454.808594 270.324219 454.292969 270.957031 C 453.773438 271.589844 453.222656 272.199219 452.644531 272.777344 C 452.066406 273.355469 451.460938 273.90625 450.828125 274.425781 C 450.195312 274.945312 449.539062 275.433594 448.855469 275.890625 C 448.175781 276.34375 447.476562 276.765625 446.753906 277.152344 C 446.03125 277.539062 445.292969 277.886719 444.535156 278.199219 C 443.78125 278.515625 443.011719 278.789062 442.226562 279.027344 C 441.445312 279.265625 440.652344 279.464844 439.847656 279.625 C 439.046875 279.785156 438.238281 279.90625 437.421875 279.984375 C 436.609375 280.066406 435.792969 280.105469 434.972656 280.105469 C 434.15625 280.105469 433.339844 280.066406 432.523438 279.984375 C 431.710938 279.90625 430.902344 279.785156 430.097656 279.625 C 429.296875 279.464844 428.503906 279.265625 427.71875 279.027344 C 426.9375 278.789062 426.167969 278.515625 425.410156 278.199219 C 424.65625 277.886719 423.917969 277.539062 423.195312 277.152344 C 422.472656 276.765625 421.769531 276.34375 421.089844 275.890625 C 420.410156 275.433594 419.753906 274.945312 419.121094 274.425781 C 418.488281 273.90625 417.882812 273.355469 417.304688 272.777344 C 416.726562 272.199219 416.175781 271.589844 415.65625 270.957031 C 415.136719 270.324219 414.652344 269.667969 414.195312 268.984375 C 413.742188 268.304688 413.320312 267.601562 412.9375 266.878906 C 412.550781 266.15625 412.199219 265.417969 411.886719 264.660156 C 411.574219 263.902344 411.296875 263.132812 411.0625 262.347656 C 410.824219 261.5625 410.625 260.769531 410.464844 259.964844 C 410.304688 259.160156 410.183594 258.351562 410.105469 257.535156 C 410.023438 256.722656 409.984375 255.902344 409.984375 255.085938 C 409.984375 254.265625 410.023438 253.445312 410.105469 252.632812 C 410.183594 251.816406 410.304688 251.007812 410.464844 250.203125 C 410.625 249.398438 410.824219 248.605469 411.0625 247.820312 C 411.296875 247.035156 411.574219 246.265625 411.886719 245.507812 C 412.199219 244.75 412.550781 244.011719 412.9375 243.289062 C 413.320312 242.566406 413.742188 241.863281 414.195312 241.183594 C 414.652344 240.5 415.136719 239.84375 415.65625 239.210938 C 416.175781 238.578125 416.726562 237.96875 417.304688 237.390625 C 417.882812 236.8125 418.488281 236.261719 419.121094 235.742188 C 419.753906 235.222656 420.410156 234.734375 421.089844 234.28125 C 421.769531 233.824219 422.472656 233.402344 423.195312 233.015625 C 423.917969 232.628906 424.65625 232.28125 425.410156 231.96875 C 426.167969 231.652344 426.9375 231.378906 427.71875 231.140625 C 428.503906 230.902344 429.296875 230.703125 430.097656 230.542969 C 430.902344 230.382812 431.710938 230.261719 432.523438 230.183594 C 433.339844 230.101562 434.15625 230.0625 434.972656 230.0625 C 435.792969 230.0625 436.609375 230.101562 437.421875 230.183594 C 438.238281 230.261719 439.046875 230.382812 439.847656 230.542969 C 440.652344 230.703125 441.445312 230.902344 442.226562 231.140625 C 443.011719 231.378906 443.78125 231.652344 444.535156 231.96875 C 445.292969 232.28125 446.03125 232.628906 446.753906 233.015625 C 447.476562 233.402344 448.175781 233.824219 448.855469 234.28125 C 449.539062 234.734375 450.195312 235.222656 450.828125 235.742188 C 451.460938 236.261719 452.066406 236.8125 452.644531 237.390625 C 453.222656 237.96875 453.773438 238.578125 454.292969 239.210938 C 454.808594 239.84375 455.296875 240.5 455.75 241.183594 C 456.207031 241.863281 456.625 242.566406 457.011719 243.289062 C 457.398438 244.011719 457.746094 244.75 458.0625 245.507812 C 458.375 246.265625 458.648438 247.035156 458.886719 247.820312 C 459.125 248.605469 459.324219 249.398438 459.484375 250.203125 C 459.644531 251.007812 459.761719 251.816406 459.84375 252.632812 C 459.921875 253.445312 459.964844 254.265625 459.964844 255.085938 Z M 459.964844 255.085938 " fill-opacity="1" fill-rule="nonzero"/></g><g clip-path="url(#bd5d91e2af)"><path fill="#000000" d="M 340.015625 255.085938 C 340.015625 255.902344 339.976562 256.722656 339.894531 257.535156 C 339.816406 258.351562 339.695312 259.160156 339.535156 259.964844 C 339.375 260.769531 339.175781 261.5625 338.9375 262.347656 C 338.703125 263.132812 338.425781 263.902344 338.113281 264.660156 C 337.800781 265.417969 337.449219 266.15625 337.0625 266.878906 C 336.679688 267.601562 336.257812 268.304688 335.804688 268.984375 C 335.347656 269.667969 334.863281 270.324219 334.34375 270.957031 C 333.824219 271.589844 333.273438 272.199219 332.695312 272.777344 C 332.117188 273.355469 331.511719 273.90625 330.878906 274.425781 C 330.246094 274.945312 329.589844 275.433594 328.910156 275.890625 C 328.230469 276.34375 327.527344 276.765625 326.804688 277.152344 C 326.082031 277.539062 325.34375 277.886719 324.589844 278.199219 C 323.832031 278.515625 323.0625 278.789062 322.28125 279.027344 C 321.496094 279.265625 320.703125 279.464844 319.902344 279.625 C 319.097656 279.785156 318.289062 279.90625 317.476562 279.984375 C 316.660156 280.066406 315.84375 280.105469 315.027344 280.105469 C 314.207031 280.105469 313.390625 280.066406 312.578125 279.984375 C 311.761719 279.90625 310.953125 279.785156 310.152344 279.625 C 309.347656 279.464844 308.554688 279.265625 307.773438 279.027344 C 306.988281 278.789062 306.21875 278.515625 305.460938 278.199219 C 304.707031 277.886719 303.96875 277.539062 303.246094 277.152344 C 302.523438 276.765625 301.824219 276.34375 301.140625 275.890625 C 300.460938 275.433594 299.804688 274.945312 299.171875 274.425781 C 298.539062 273.90625 297.933594 273.355469 297.355469 272.777344 C 296.777344 272.199219 296.226562 271.589844 295.707031 270.957031 C 295.191406 270.324219 294.703125 269.667969 294.25 268.984375 C 293.792969 268.304688 293.375 267.601562 292.988281 266.878906 C 292.601562 266.15625 292.253906 265.417969 291.9375 264.660156 C 291.625 263.902344 291.351562 263.132812 291.113281 262.347656 C 290.875 261.5625 290.675781 260.769531 290.515625 259.964844 C 290.355469 259.160156 290.238281 258.351562 290.15625 257.535156 C 290.078125 256.722656 290.035156 255.902344 290.035156 255.085938 C 290.035156 254.265625 290.078125 253.445312 290.15625 252.632812 C 290.238281 251.816406 290.355469 251.007812 290.515625 250.203125 C 290.675781 249.398438 290.875 248.605469 291.113281 247.820312 C 291.351562 247.035156 291.625 246.265625 291.9375 245.507812 C 292.253906 244.75 292.601562 244.011719 292.988281 243.289062 C 293.375 242.566406 293.792969 241.863281 294.25 241.183594 C 294.703125 240.5 295.191406 239.84375 295.707031 239.210938 C 296.226562 238.578125 296.777344 237.96875 297.355469 237.390625 C 297.933594 236.8125 298.539062 236.261719 299.171875 235.742188 C 299.804688 235.222656 300.460938 234.734375 301.140625 234.28125 C 301.824219 233.824219 302.523438 233.402344 303.246094 233.015625 C 303.96875 232.628906 304.707031 232.28125 305.460938 231.96875 C 306.21875 231.652344 306.988281 231.378906 307.773438 231.140625 C 308.554688 230.902344 309.347656 230.703125 310.152344 230.542969 C 310.953125 230.382812 311.761719 230.261719 312.578125 230.183594 C 313.390625 230.101562 314.207031 230.0625 315.027344 230.0625 C 315.84375 230.0625 316.660156 230.101562 317.476562 230.183594 C 318.289062 230.261719 319.097656 230.382812 319.902344 230.542969 C 320.703125 230.703125 321.496094 230.902344 322.28125 231.140625 C 323.0625 231.378906 323.832031 231.652344 324.589844 231.96875 C 325.34375 232.28125 326.082031 232.628906 326.804688 233.015625 C 327.527344 233.402344 328.230469 233.824219 328.910156 234.28125 C 329.589844 234.734375 330.246094 235.222656 330.878906 235.742188 C 331.511719 236.261719 332.117188 236.8125 332.695312 237.390625 C 333.273438 237.96875 333.824219 238.578125 334.34375 239.210938 C 334.863281 239.84375 335.347656 240.5 335.804688 241.183594 C 336.257812 241.863281 336.679688 242.566406 337.0625 243.289062 C 337.449219 244.011719 337.800781 244.75 338.113281 245.507812 C 338.425781 246.265625 338.703125 247.035156 338.9375 247.820312 C 339.175781 248.605469 339.375 249.398438 339.535156 250.203125 C 339.695312 251.007812 339.816406 251.816406 339.894531 252.632812 C 339.976562 253.445312 340.015625 254.265625 340.015625 255.085938 Z M 340.015625 255.085938 " fill-opacity="1" fill-rule="nonzero"/></g><g clip-path="url(#552676286b)"><path fill="#000000" d="M 243.007812 436.890625 C 237.859375 431.335938 235.058594 424.078125 235.058594 416.523438 L 235.058594 347.664062 C 235.058594 345.5625 235.960938 343.511719 237.507812 342.109375 C 239.109375 340.65625 241.15625 340.007812 243.308594 340.207031 C 247.054688 340.609375 250.003906 344.160156 250.003906 348.363281 L 250.003906 379.492188 C 250.003906 382.242188 252.253906 384.496094 255 384.496094 C 257.75 384.496094 260 382.242188 260 379.492188 L 260 348.363281 C 260 339.054688 253.101562 331.097656 244.304688 330.25 C 239.359375 329.75 234.460938 331.351562 230.761719 334.703125 C 227.113281 338.003906 225.015625 342.757812 225.015625 347.714844 L 225.015625 416.574219 C 225.015625 426.683594 228.761719 436.289062 235.609375 443.746094 L 268.644531 479.628906 C 269.496094 480.578125 269.996094 481.78125 269.996094 483.03125 L 269.996094 515.410156 C 269.996094 518.160156 272.246094 520.414062 274.992188 520.414062 C 277.742188 520.414062 279.992188 518.160156 279.992188 515.410156 L 279.992188 483.03125 C 279.992188 479.226562 278.589844 475.625 275.992188 472.871094 L 242.957031 436.992188 Z M 243.007812 436.890625 " fill-opacity="1" fill-rule="nonzero"/></g><g clip-path="url(#069549e1ab)"><path fill="#000000" d="M 279.890625 395.304688 C 273.09375 388.550781 262 388.550781 255.152344 395.304688 C 251.851562 398.609375 250.003906 403.011719 250.003906 407.714844 C 250.003906 412.417969 251.804688 416.773438 255.152344 420.078125 L 279.941406 444.898438 C 280.941406 445.898438 282.191406 446.347656 283.488281 446.347656 C 284.789062 446.347656 286.039062 445.847656 287.039062 444.898438 C 288.988281 442.945312 288.988281 439.792969 287.039062 437.839844 L 262.25 413.019531 C 260.847656 411.617188 260.050781 409.71875 260.050781 407.714844 C 260.050781 405.714844 260.847656 403.8125 262.25 402.410156 C 265.199219 399.558594 269.945312 399.558594 272.84375 402.410156 L 314.777344 444.398438 C 321.375 451.003906 325.023438 459.808594 325.023438 469.167969 L 325.023438 515.359375 C 325.023438 518.109375 327.269531 520.363281 330.019531 520.363281 C 332.769531 520.363281 335.015625 518.109375 335.015625 515.359375 L 335.015625 469.167969 C 335.015625 457.15625 330.320312 445.847656 321.824219 437.339844 L 279.890625 395.355469 Z M 279.890625 395.304688 " fill-opacity="1" fill-rule="nonzero"/></g><g clip-path="url(#de1d4a37bf)"><path fill="#000000" d="M 494.796875 420.125 C 498.097656 416.824219 499.945312 412.417969 499.945312 407.714844 C 499.945312 403.011719 498.148438 398.65625 494.796875 395.304688 C 488 388.550781 476.90625 388.550781 470.058594 395.304688 L 428.128906 437.289062 C 419.628906 445.796875 414.933594 457.109375 414.933594 469.117188 L 414.933594 515.308594 C 414.933594 518.0625 417.183594 520.3125 419.929688 520.3125 C 422.679688 520.3125 424.929688 518.0625 424.929688 515.308594 L 424.929688 469.117188 C 424.929688 459.761719 428.578125 450.953125 435.175781 444.347656 L 477.054688 402.410156 C 480.003906 399.507812 484.753906 399.507812 487.652344 402.410156 C 489.050781 403.8125 489.851562 405.714844 489.851562 407.714844 C 489.851562 409.71875 489.050781 411.617188 487.652344 413.019531 L 462.863281 437.839844 C 460.914062 439.792969 460.914062 442.945312 462.863281 444.898438 C 463.863281 445.898438 465.109375 446.347656 466.410156 446.347656 C 467.710938 446.347656 468.960938 445.847656 469.960938 444.898438 L 494.75 420.078125 Z M 494.796875 420.125 " fill-opacity="1" fill-rule="nonzero"/></g><g clip-path="url(#3d3cf37928)"><path fill="#000000" d="M 519.1875 334.652344 C 515.539062 331.351562 510.640625 329.699219 505.644531 330.199219 C 496.847656 331.097656 489.949219 339.054688 489.949219 348.3125 L 489.949219 379.441406 C 489.949219 382.195312 492.199219 384.445312 494.949219 384.445312 C 497.695312 384.445312 499.945312 382.195312 499.945312 379.441406 L 499.945312 348.3125 C 499.945312 344.109375 502.894531 340.507812 506.644531 340.15625 C 508.792969 339.90625 510.890625 340.609375 512.441406 342.058594 C 513.988281 343.460938 514.890625 345.511719 514.890625 347.613281 L 514.890625 416.472656 C 514.890625 424.03125 512.089844 431.285156 506.941406 436.839844 L 473.90625 472.722656 C 471.359375 475.523438 469.960938 479.128906 469.960938 482.878906 L 469.960938 515.257812 C 469.960938 518.011719 472.207031 520.261719 474.957031 520.261719 C 477.707031 520.261719 479.953125 518.011719 479.953125 515.257812 L 479.953125 482.878906 C 479.953125 481.628906 480.40625 480.429688 481.304688 479.476562 L 514.339844 443.597656 C 521.1875 436.191406 524.933594 426.53125 524.933594 416.421875 L 524.933594 347.5625 C 524.933594 342.609375 522.835938 337.90625 519.1875 334.550781 Z M 519.1875 334.652344 " fill-opacity="1" fill-rule="nonzero"/></g></svg>