<svg xmlns="http://www.w3.org/2000/svg" xmlns:xlink="http://www.w3.org/1999/xlink" width="1000" zoomAndPan="magnify" viewBox="0 0 750 749.999995" height="1000" preserveAspectRatio="xMidYMid meet" version="1.0"><defs><clipPath id="8069108460"><path d="M 225.375 225 L 524.625 225 L 524.625 525 L 225.375 525 Z M 225.375 225 " clip-rule="nonzero"/></clipPath></defs><g clip-path="url(#8069108460)"><path fill="#000000" d="M 285.199219 353.175781 L 285.199219 328.53125 L 305.03125 320.898438 C 307.578125 310.296875 311.753906 300.21875 317.460938 290.957031 L 308.816406 271.515625 L 331.714844 248.617188 L 351.15625 257.261719 C 360.421875 251.550781 370.5 247.375 381.066406 244.863281 L 388.734375 225 L 421.125 225 L 428.757812 244.863281 C 439.328125 247.375 449.40625 251.550781 458.667969 257.261719 L 478.109375 248.617188 L 501.007812 271.515625 L 492.398438 290.957031 C 498.105469 300.21875 502.28125 310.296875 504.792969 320.898438 L 524.625 328.53125 L 524.625 360.921875 L 504.792969 368.558594 C 502.28125 379.125 498.074219 389.203125 492.398438 398.46875 L 501.007812 417.910156 L 478.109375 440.808594 L 458.667969 432.195312 C 449.4375 437.90625 439.328125 442.078125 428.757812 444.59375 L 421.125 464.425781 L 388.734375 464.425781 L 381.101562 444.59375 C 370.519531 442.085938 360.457031 437.886719 351.207031 432.226562 C 356.347656 425.824219 360.023438 418.191406 361.710938 409.84375 C 374.105469 418.09375 388.972656 422.914062 404.925781 422.914062 C 447.996094 422.914062 483.113281 387.796875 483.113281 344.722656 C 483.113281 301.652344 447.996094 266.511719 404.925781 266.511719 C 361.851562 266.511719 326.710938 301.652344 326.710938 344.722656 C 326.710938 346.335938 326.761719 347.9375 326.859375 349.523438 C 321.632812 347.78125 316.042969 346.839844 310.234375 346.839844 C 301.171875 346.839844 292.640625 349.136719 285.199219 353.175781 Z M 394.65625 351.605469 L 432.667969 313.199219 C 437.171875 308.675781 444.519531 308.652344 449.046875 313.152344 C 453.574219 317.65625 453.597656 324.984375 449.09375 329.535156 C 433.671875 345.097656 418.363281 360.753906 402.871094 376.246094 C 398.34375 380.773438 390.996094 380.773438 386.46875 376.246094 L 360.777344 350.535156 C 356.25 346.007812 356.25 338.679688 360.777344 334.128906 C 365.304688 329.605469 372.65625 329.605469 377.179688 334.128906 Z M 225.753906 517.539062 C 233.542969 477.992188 268.402344 448.160156 310.234375 448.160156 C 352.066406 448.160156 386.925781 477.992188 394.722656 517.535156 C 395.085938 519.371094 394.605469 521.273438 393.417969 522.71875 C 392.230469 524.160156 390.460938 525 388.589844 525 C 360.609375 525 259.859375 525 231.878906 524.992188 C 230.011719 524.992188 228.242188 524.15625 227.054688 522.710938 C 225.871094 521.269531 225.394531 519.371094 225.753906 517.539062 Z M 310.234375 356.839844 C 333.71875 356.839844 352.757812 375.878906 352.757812 399.363281 C 352.757812 422.847656 333.71875 441.886719 310.234375 441.886719 C 286.75 441.886719 267.710938 422.847656 267.710938 399.363281 C 267.710938 375.878906 286.75 356.839844 310.234375 356.839844 Z M 310.234375 356.839844 " fill-opacity="1" fill-rule="evenodd"/></g></svg>