<svg xmlns="http://www.w3.org/2000/svg" xmlns:xlink="http://www.w3.org/1999/xlink" width="1681" zoomAndPan="magnify" viewBox="0 0 1260.75 285.749983" height="381" preserveAspectRatio="xMidYMid meet" version="1.0"><defs><g/></defs><g fill="#f2f9f8" fill-opacity="1"><g transform="translate(117.164487, 174.810113)"><g><path d="M 48.128906 -40.378906 L 58.371094 -40.378906 C 56.910156 -52.949219 47.4375 -62.847656 31.855469 -62.847656 C 14.121094 -62.847656 2.925781 -49.332031 2.925781 -30.820312 C 2.925781 -12.226562 14.121094 1.292969 31.855469 1.292969 C 47.523438 1.292969 56.996094 -8.609375 58.371094 -22.472656 L 48.128906 -22.472656 C 47.4375 -14.980469 43.046875 -7.492188 31.597656 -7.492188 C 18.339844 -7.492188 13.085938 -18.597656 13.085938 -30.820312 C 13.085938 -42.960938 18.339844 -54.066406 31.597656 -54.066406 C 42.960938 -54.066406 47.007812 -46.578125 48.128906 -40.378906 Z M 48.128906 -40.378906 "/></g></g></g><g fill="#f2f9f8" fill-opacity="1"><g transform="translate(177.860611, 174.810113)"><g><path d="M 33.148438 1.292969 C 51.65625 1.292969 63.367188 -12.3125 63.367188 -30.820312 C 63.367188 -49.332031 51.65625 -62.847656 33.148438 -62.847656 C 14.550781 -62.847656 2.925781 -49.332031 2.925781 -30.820312 C 2.925781 -12.3125 14.550781 1.292969 33.148438 1.292969 Z M 33.148438 -7.492188 C 19.027344 -7.492188 13.085938 -18.339844 13.085938 -30.820312 C 13.085938 -43.21875 19.027344 -54.066406 33.148438 -54.066406 C 47.265625 -54.066406 53.121094 -43.21875 53.121094 -30.820312 C 53.121094 -18.339844 47.265625 -7.492188 33.148438 -7.492188 Z M 33.148438 -7.492188 "/></g></g></g><g fill="#f2f9f8" fill-opacity="1"><g transform="translate(244.152826, 174.810113)"><g><path d="M 5.25 0 L 15.496094 0 L 15.496094 -46.0625 L 15.667969 -46.0625 L 43.476562 0 L 54.84375 0 L 54.84375 -61.558594 L 44.597656 -61.558594 L 44.597656 -15.324219 L 44.425781 -15.324219 L 16.703125 -61.558594 L 5.25 -61.558594 Z M 5.25 0 "/></g></g></g><g fill="#f2f9f8" fill-opacity="1"><g transform="translate(304.246285, 174.810113)"><g><path d="M 21.4375 0 L 31.683594 0 L 31.683594 -52.863281 L 51.3125 -52.863281 L 51.3125 -61.558594 L 1.722656 -61.558594 L 1.722656 -52.863281 L 21.4375 -52.863281 Z M 21.4375 0 "/></g></g></g><g fill="#f2f9f8" fill-opacity="1"><g transform="translate(357.280057, 174.810113)"><g><path d="M 41.066406 -14.550781 L 46.0625 0 L 56.476562 0 L 33.921875 -61.558594 L 23.160156 -61.558594 L 0.515625 0 L 10.933594 0 L 15.925781 -14.550781 Z M 18.769531 -23.074219 L 28.496094 -52.171875 L 28.667969 -52.171875 L 38.3125 -23.074219 Z M 18.769531 -23.074219 "/></g></g></g><g fill="#f2f9f8" fill-opacity="1"><g transform="translate(414.360244, 174.810113)"><g><path d="M 48.128906 -40.378906 L 58.371094 -40.378906 C 56.910156 -52.949219 47.4375 -62.847656 31.855469 -62.847656 C 14.121094 -62.847656 2.925781 -49.332031 2.925781 -30.820312 C 2.925781 -12.226562 14.121094 1.292969 31.855469 1.292969 C 47.523438 1.292969 56.996094 -8.609375 58.371094 -22.472656 L 48.128906 -22.472656 C 47.4375 -14.980469 43.046875 -7.492188 31.597656 -7.492188 C 18.339844 -7.492188 13.085938 -18.597656 13.085938 -30.820312 C 13.085938 -42.960938 18.339844 -54.066406 31.597656 -54.066406 C 42.960938 -54.066406 47.007812 -46.578125 48.128906 -40.378906 Z M 48.128906 -40.378906 "/></g></g></g><g fill="#f2f9f8" fill-opacity="1"><g transform="translate(475.056368, 174.810113)"><g><path d="M 21.4375 0 L 31.683594 0 L 31.683594 -52.863281 L 51.3125 -52.863281 L 51.3125 -61.558594 L 1.722656 -61.558594 L 1.722656 -52.863281 L 21.4375 -52.863281 Z M 21.4375 0 "/></g></g></g><g fill="#f2f9f8" fill-opacity="1"><g transform="translate(528.09014, 174.810113)"><g><path d="M 57.941406 -6.800781 C 65.519531 -6.800781 73.785156 -11.707031 73.785156 -27.808594 C 73.785156 -46.234375 60.957031 -61.472656 39.171875 -61.472656 C 17.992188 -61.472656 2.925781 -45.199219 2.925781 -25.65625 C 2.925781 -4.390625 17.390625 9.210938 38.3125 9.210938 C 44.511719 9.210938 50.453125 8.4375 56.132812 5.511719 L 53.722656 0 C 48.644531 2.066406 43.648438 2.582031 38.3125 2.582031 C 21.78125 2.582031 9.988281 -8.695312 9.988281 -25.65625 C 9.988281 -40.894531 21.695312 -54.84375 39.171875 -54.84375 C 56.476562 -54.84375 66.980469 -43.046875 66.980469 -27.550781 C 66.980469 -17.992188 63.625 -13.34375 58.542969 -13.34375 C 54.410156 -13.34375 52.519531 -16.445312 53.292969 -22.296875 L 56.046875 -43.910156 L 48.214844 -43.910156 L 47.351562 -37.539062 L 47.179688 -37.539062 C 45.628906 -41.324219 41.582031 -44.511719 35.902344 -44.511719 C 27.207031 -44.511719 20.058594 -36.847656 20.058594 -24.96875 C 20.058594 -13.6875 26.34375 -7.144531 34.179688 -7.144531 C 40.121094 -7.144531 43.5625 -9.730469 45.800781 -13.773438 L 45.976562 -13.773438 C 48.300781 -9.382812 52.433594 -6.800781 57.941406 -6.800781 Z M 35.988281 -14.292969 C 30.21875 -14.292969 27.808594 -18.683594 27.808594 -24.535156 C 27.808594 -32.027344 31.339844 -37.363281 37.625 -37.363281 C 42.359375 -37.363281 45.800781 -34.007812 45.800781 -27.121094 C 45.800781 -19.886719 42.617188 -14.292969 35.988281 -14.292969 Z M 35.988281 -14.292969 "/></g></g></g><g fill="#f2f9f8" fill-opacity="1"><g transform="translate(604.627501, 174.810113)"><g><path d="M 5.25 0 L 15.238281 0 L 15.238281 -46.664062 L 15.410156 -46.664062 L 31.683594 0 L 39.863281 0 L 56.132812 -46.664062 L 56.304688 -46.664062 L 56.304688 0 L 66.292969 0 L 66.292969 -61.558594 L 53.035156 -61.558594 L 35.902344 -14.207031 L 35.730469 -14.207031 L 18.511719 -61.558594 L 5.25 -61.558594 Z M 5.25 0 "/></g></g></g><g fill="#f2f9f8" fill-opacity="1"><g transform="translate(676.171435, 174.810113)"><g><path d="M 33.148438 1.292969 C 51.65625 1.292969 63.367188 -12.3125 63.367188 -30.820312 C 63.367188 -49.332031 51.65625 -62.847656 33.148438 -62.847656 C 14.550781 -62.847656 2.925781 -49.332031 2.925781 -30.820312 C 2.925781 -12.3125 14.550781 1.292969 33.148438 1.292969 Z M 33.148438 -7.492188 C 19.027344 -7.492188 13.085938 -18.339844 13.085938 -30.820312 C 13.085938 -43.21875 19.027344 -54.066406 33.148438 -54.066406 C 47.265625 -54.066406 53.121094 -43.21875 53.121094 -30.820312 C 53.121094 -18.339844 47.265625 -7.492188 33.148438 -7.492188 Z M 33.148438 -7.492188 "/></g></g></g><g fill="#f2f9f8" fill-opacity="1"><g transform="translate(742.463675, 174.810113)"><g><path d="M 28.582031 -36.675781 C 19.972656 -38.828125 14.207031 -40.035156 14.207031 -46.75 C 14.207031 -51.3125 18.597656 -54.066406 25.914062 -54.066406 C 34.4375 -54.066406 38.914062 -50.28125 39.863281 -43.132812 L 50.105469 -43.132812 C 49.246094 -55.789062 39.429688 -62.847656 25.914062 -62.847656 C 12.484375 -62.847656 4.046875 -56.738281 4.046875 -45.800781 C 4.046875 -34.09375 14.464844 -30.390625 24.105469 -27.980469 C 36.246094 -24.96875 41.496094 -23.589844 41.496094 -16.273438 C 41.496094 -11.535156 37.96875 -7.492188 28.839844 -7.492188 C 17.820312 -7.492188 12.484375 -12.65625 11.96875 -20.492188 L 1.722656 -20.492188 C 2.324219 -6.542969 13.773438 1.292969 28.839844 1.292969 C 44.339844 1.292969 51.742188 -6.886719 51.742188 -16.703125 C 51.742188 -30.476562 41.757812 -33.320312 28.582031 -36.675781 Z M 28.582031 -36.675781 "/></g></g></g><g fill="#f2f9f8" fill-opacity="1"><g transform="translate(796.961059, 174.810113)"><g><path d="M 5.25 -61.558594 L 5.25 0 L 15.496094 0 L 15.496094 -27.292969 L 44.597656 -27.292969 L 44.597656 0 L 54.84375 0 L 54.84375 -61.558594 L 44.597656 -61.558594 L 44.597656 -36.074219 L 15.496094 -36.074219 L 15.496094 -61.558594 Z M 5.25 -61.558594 "/></g></g></g><g fill="#f2f9f8" fill-opacity="1"><g transform="translate(857.05456, 174.810113)"><g><path d="M 15.496094 -36.160156 L 15.496094 -52.863281 L 49.761719 -52.863281 L 49.761719 -61.558594 L 5.25 -61.558594 L 5.25 0 L 50.625 0 L 50.625 -8.695312 L 15.496094 -8.695312 L 15.496094 -27.378906 L 45.542969 -27.378906 L 45.542969 -36.160156 Z M 15.496094 -36.160156 "/></g></g></g><g fill="#f2f9f8" fill-opacity="1"><g transform="translate(910.777077, 174.810113)"><g><path d="M 5.25 0 L 15.496094 0 L 15.496094 -23.761719 L 30.5625 -23.761719 C 45.371094 -23.761719 39.605469 -2.582031 42.445312 0 L 53.207031 0 L 53.207031 -0.601562 C 49.933594 -1.636719 55.101562 -25.742188 40.894531 -28.410156 L 40.894531 -28.582031 C 47.953125 -30.304688 52.34375 -35.300781 52.34375 -43.910156 C 52.34375 -55.101562 44.167969 -61.558594 31.511719 -61.558594 L 5.25 -61.558594 Z M 15.496094 -52.863281 L 29.359375 -52.863281 C 35.644531 -52.863281 42.1875 -51.570312 42.1875 -42.703125 C 42.1875 -33.75 35.644531 -32.542969 29.359375 -32.542969 L 15.496094 -32.542969 Z M 15.496094 -52.863281 "/></g></g></g><g fill="#f2f9f8" fill-opacity="1"><g transform="translate(966.307596, 174.810113)"><g><path d="M 5.25 -61.558594 L 5.25 0 L 15.496094 0 L 15.496094 -27.292969 L 44.597656 -27.292969 L 44.597656 0 L 54.84375 0 L 54.84375 -61.558594 L 44.597656 -61.558594 L 44.597656 -36.074219 L 15.496094 -36.074219 L 15.496094 -61.558594 Z M 5.25 -61.558594 "/></g></g></g><g fill="#f2f9f8" fill-opacity="1"><g transform="translate(1026.401097, 174.810113)"><g><path d="M 41.066406 -14.550781 L 46.0625 0 L 56.476562 0 L 33.921875 -61.558594 L 23.160156 -61.558594 L 0.515625 0 L 10.933594 0 L 15.925781 -14.550781 Z M 18.769531 -23.074219 L 28.496094 -52.171875 L 28.667969 -52.171875 L 38.3125 -23.074219 Z M 18.769531 -23.074219 "/></g></g></g><g fill="#f2f9f8" fill-opacity="1"><g transform="translate(1083.481284, 174.810113)"><g><path d="M 5.25 0 L 15.496094 0 L 15.496094 -46.0625 L 15.667969 -46.0625 L 43.476562 0 L 54.84375 0 L 54.84375 -61.558594 L 44.597656 -61.558594 L 44.597656 -15.324219 L 44.425781 -15.324219 L 16.703125 -61.558594 L 5.25 -61.558594 Z M 5.25 0 "/></g></g></g></svg>