<?xml version="1.0" encoding="UTF-8"?>
<svg xmlns="http://www.w3.org/2000/svg" xmlns:xlink="http://www.w3.org/1999/xlink" width="99px" height="13px" viewBox="0 0 97 13" version="1.1">
<g id="surface1">
<path style=" stroke:none;fill-rule:nonzero;fill:rgb(0%,0%,0%);fill-opacity:1;" d="M 4.757812 6.785156 L 5.863281 6.785156 C 5.726562 5.550781 4.8125 4.648438 3.410156 4.648438 C 1.808594 4.648438 0.765625 5.816406 0.765625 7.519531 C 0.765625 9.21875 1.808594 10.390625 3.421875 10.390625 C 4.820312 10.390625 5.777344 9.464844 5.863281 8.210938 L 4.757812 8.210938 C 4.714844 8.816406 4.367188 9.476562 3.421875 9.476562 C 2.324219 9.476562 1.871094 8.539062 1.871094 7.519531 C 1.871094 6.496094 2.335938 5.5625 3.421875 5.5625 C 4.367188 5.5625 4.714844 6.230469 4.757812 6.785156 Z M 4.757812 6.785156 "/>
<path style=" stroke:none;fill-rule:nonzero;fill:rgb(0%,0%,0%);fill-opacity:1;" d="M 9.011719 10.390625 C 7.324219 10.390625 6.304688 9.210938 6.304688 7.519531 C 6.304688 5.828125 7.324219 4.648438 9.011719 4.648438 C 10.695312 4.648438 11.714844 5.828125 11.714844 7.519531 C 11.714844 9.210938 10.695312 10.390625 9.011719 10.390625 Z M 9.011719 9.476562 C 10.0625 9.476562 10.609375 8.632812 10.609375 7.519531 C 10.609375 6.390625 10.0625 5.5625 9.011719 5.5625 C 7.957031 5.5625 7.410156 6.390625 7.410156 7.519531 C 7.410156 8.632812 7.957031 9.476562 9.011719 9.476562 Z M 9.011719 9.476562 "/>
<path style=" stroke:none;fill-rule:nonzero;fill:rgb(0%,0%,0%);fill-opacity:1;" d="M 15.378906 4.648438 C 14.453125 4.648438 13.894531 5.074219 13.609375 5.5 L 13.589844 5.5 L 13.589844 4.796875 L 12.484375 4.796875 L 12.484375 10.230469 L 13.589844 10.230469 L 13.589844 6.925781 C 13.589844 6.113281 14.136719 5.59375 14.988281 5.59375 C 15.746094 5.59375 16.054688 6.0625 16.054688 6.796875 L 16.054688 10.230469 L 17.167969 10.230469 L 17.167969 6.476562 C 17.167969 5.234375 16.378906 4.648438 15.378906 4.648438 Z M 15.378906 4.648438 "/>
<path style=" stroke:none;fill-rule:nonzero;fill:rgb(0%,0%,0%);fill-opacity:1;" d="M 20.746094 5.710938 L 20.746094 4.796875 L 19.738281 4.796875 L 19.738281 3.085938 L 18.621094 3.085938 L 18.621094 4.796875 L 17.839844 4.796875 L 17.839844 5.710938 L 18.621094 5.710938 L 18.621094 8.753906 C 18.621094 9.898438 19.105469 10.304688 19.988281 10.304688 C 20.285156 10.304688 20.527344 10.273438 20.746094 10.21875 L 20.746094 9.304688 C 20.03125 9.347656 19.738281 9.273438 19.738281 8.65625 L 19.738281 5.710938 Z M 20.746094 5.710938 "/>
<path style=" stroke:none;fill-rule:nonzero;fill:rgb(0%,0%,0%);fill-opacity:1;" d="M 24.800781 6.222656 C 24.800781 6.742188 24.292969 6.847656 23.464844 7.007812 C 22.117188 7.273438 21.242188 7.644531 21.242188 8.835938 C 21.242188 9.75 21.914062 10.390625 23.011719 10.390625 C 23.84375 10.390625 24.453125 10.058594 24.789062 9.582031 L 24.808594 9.582031 C 24.914062 10.113281 25.191406 10.324219 25.777344 10.324219 C 25.988281 10.324219 26.167969 10.304688 26.421875 10.207031 L 26.421875 9.675781 C 25.988281 9.71875 25.90625 9.519531 25.90625 9.136719 L 25.90625 6.550781 C 25.90625 5.105469 25.019531 4.648438 23.832031 4.648438 C 22.210938 4.648438 21.546875 5.464844 21.496094 6.507812 L 22.570312 6.507812 C 22.621094 5.804688 22.945312 5.53125 23.832031 5.53125 C 24.570312 5.53125 24.800781 5.828125 24.800781 6.222656 Z M 23.253906 9.507812 C 22.652344 9.507812 22.359375 9.230469 22.359375 8.730469 C 22.359375 8.175781 22.757812 7.910156 23.675781 7.710938 C 24.1875 7.605469 24.621094 7.476562 24.800781 7.347656 L 24.800781 8.167969 C 24.800781 9.050781 24.167969 9.507812 23.253906 9.507812 Z M 23.253906 9.507812 "/>
<path style=" stroke:none;fill-rule:nonzero;fill:rgb(0%,0%,0%);fill-opacity:1;" d="M 30.769531 6.785156 L 31.875 6.785156 C 31.738281 5.550781 30.820312 4.648438 29.421875 4.648438 C 27.820312 4.648438 26.777344 5.816406 26.777344 7.519531 C 26.777344 9.21875 27.820312 10.390625 29.433594 10.390625 C 30.832031 10.390625 31.789062 9.464844 31.875 8.210938 L 30.769531 8.210938 C 30.726562 8.816406 30.378906 9.476562 29.433594 9.476562 C 28.335938 9.476562 27.882812 8.539062 27.882812 7.519531 C 27.882812 6.496094 28.347656 5.5625 29.433594 5.5625 C 30.378906 5.5625 30.726562 6.230469 30.769531 6.785156 Z M 30.769531 6.785156 "/>
<path style=" stroke:none;fill-rule:nonzero;fill:rgb(0%,0%,0%);fill-opacity:1;" d="M 35.167969 5.710938 L 35.167969 4.796875 L 34.15625 4.796875 L 34.15625 3.085938 L 33.042969 3.085938 L 33.042969 4.796875 L 32.261719 4.796875 L 32.261719 5.710938 L 33.042969 5.710938 L 33.042969 8.753906 C 33.042969 9.898438 33.527344 10.304688 34.410156 10.304688 C 34.707031 10.304688 34.949219 10.273438 35.167969 10.21875 L 35.167969 9.304688 C 34.453125 9.347656 34.15625 9.273438 34.15625 8.65625 L 34.15625 5.710938 Z M 35.167969 5.710938 "/>
<path style=" stroke:none;fill-rule:nonzero;fill:rgb(0%,0%,0%);fill-opacity:1;" d="M 42.527344 9.390625 C 43.453125 9.390625 44.464844 8.785156 44.464844 6.796875 C 44.464844 4.519531 42.894531 2.636719 40.230469 2.636719 C 37.640625 2.636719 35.800781 4.648438 35.800781 7.0625 C 35.800781 9.6875 37.570312 11.367188 40.125 11.367188 C 40.882812 11.367188 41.609375 11.273438 42.304688 10.910156 L 42.011719 10.230469 C 41.390625 10.484375 40.78125 10.546875 40.125 10.546875 C 38.105469 10.546875 36.664062 9.15625 36.664062 7.0625 C 36.664062 5.179688 38.09375 3.457031 40.230469 3.457031 C 42.347656 3.457031 43.632812 4.914062 43.632812 6.828125 C 43.632812 8.007812 43.222656 8.582031 42.601562 8.582031 C 42.09375 8.582031 41.863281 8.199219 41.957031 7.476562 L 42.296875 4.808594 L 41.335938 4.808594 L 41.230469 5.59375 L 41.210938 5.59375 C 41.023438 5.125 40.527344 4.730469 39.832031 4.730469 C 38.769531 4.730469 37.894531 5.679688 37.894531 7.148438 C 37.894531 8.539062 38.664062 9.347656 39.621094 9.347656 C 40.347656 9.347656 40.769531 9.027344 41.042969 8.527344 L 41.0625 8.527344 C 41.347656 9.070312 41.851562 9.390625 42.527344 9.390625 Z M 39.839844 8.464844 C 39.136719 8.464844 38.84375 7.921875 38.84375 7.199219 C 38.84375 6.273438 39.273438 5.617188 40.042969 5.617188 C 40.621094 5.617188 41.042969 6.03125 41.042969 6.882812 C 41.042969 7.773438 40.652344 8.464844 39.839844 8.464844 Z M 39.839844 8.464844 "/>
<path style=" stroke:none;fill-rule:nonzero;fill:rgb(0%,0%,0%);fill-opacity:1;" d="M 51.261719 4.648438 C 50.433594 4.648438 49.90625 5.0625 49.503906 5.582031 L 49.484375 5.582031 C 49.261719 5 48.808594 4.648438 48.054688 4.648438 C 47.242188 4.648438 46.738281 5.074219 46.453125 5.5 L 46.429688 5.5 L 46.429688 4.796875 L 45.328125 4.796875 L 45.328125 10.230469 L 46.429688 10.230469 L 46.429688 6.925781 C 46.429688 6.113281 46.90625 5.59375 47.644531 5.59375 C 48.410156 5.59375 48.558594 6.0625 48.558594 6.796875 L 48.558594 10.230469 L 49.671875 10.230469 L 49.671875 6.925781 C 49.671875 6.113281 50.136719 5.59375 50.886719 5.59375 C 51.640625 5.59375 51.789062 6.0625 51.789062 6.796875 L 51.789062 10.230469 L 52.90625 10.230469 L 52.90625 6.476562 C 52.90625 5.308594 52.347656 4.648438 51.261719 4.648438 Z M 51.261719 4.648438 "/>
<path style=" stroke:none;fill-rule:nonzero;fill:rgb(0%,0%,0%);fill-opacity:1;" d="M 56.347656 10.390625 C 54.664062 10.390625 53.640625 9.210938 53.640625 7.519531 C 53.640625 5.828125 54.664062 4.648438 56.347656 4.648438 C 58.03125 4.648438 59.054688 5.828125 59.054688 7.519531 C 59.054688 9.210938 58.03125 10.390625 56.347656 10.390625 Z M 56.347656 9.476562 C 57.402344 9.476562 57.949219 8.632812 57.949219 7.519531 C 57.949219 6.390625 57.402344 5.5625 56.347656 5.5625 C 55.292969 5.5625 54.746094 6.390625 54.746094 7.519531 C 54.746094 8.632812 55.292969 9.476562 56.347656 9.476562 Z M 56.347656 9.476562 "/>
<path style=" stroke:none;fill-rule:nonzero;fill:rgb(0%,0%,0%);fill-opacity:1;" d="M 62.148438 6.945312 C 61.367188 6.761719 60.769531 6.722656 60.769531 6.167969 C 60.769531 5.785156 61.125 5.53125 61.789062 5.53125 C 62.652344 5.53125 62.863281 5.964844 62.9375 6.390625 L 64.011719 6.390625 C 63.9375 5.445312 63.242188 4.648438 61.78125 4.648438 C 60.429688 4.648438 59.652344 5.359375 59.652344 6.253906 C 59.652344 7.488281 60.808594 7.65625 61.664062 7.859375 C 62.453125 8.050781 63.09375 8.101562 63.09375 8.785156 C 63.09375 9.125 62.769531 9.507812 62 9.507812 C 60.863281 9.507812 60.609375 9.007812 60.558594 8.421875 L 59.484375 8.421875 C 59.535156 9.570312 60.285156 10.390625 62.023438 10.390625 C 63.328125 10.390625 64.210938 9.742188 64.210938 8.699219 C 64.210938 7.402344 63.136719 7.179688 62.148438 6.945312 Z M 62.148438 6.945312 "/>
<path style=" stroke:none;fill-rule:nonzero;fill:rgb(0%,0%,0%);fill-opacity:1;" d="M 67.820312 4.648438 C 66.917969 4.648438 66.359375 5.074219 66.074219 5.5 L 66.054688 5.5 L 66.054688 2.625 L 64.949219 2.625 L 64.949219 10.230469 L 66.054688 10.230469 L 66.054688 6.925781 C 66.054688 6.113281 66.632812 5.59375 67.441406 5.59375 C 68.210938 5.59375 68.515625 6.0625 68.515625 6.796875 L 68.515625 10.230469 L 69.632812 10.230469 L 69.632812 6.476562 C 69.632812 5.234375 68.84375 4.648438 67.820312 4.648438 Z M 67.820312 4.648438 "/>
<path style=" stroke:none;fill-rule:nonzero;fill:rgb(0%,0%,0%);fill-opacity:1;" d="M 73.019531 9.476562 C 72.042969 9.476562 71.464844 8.71875 71.464844 7.804688 L 75.589844 7.804688 C 75.589844 5.871094 74.738281 4.648438 73 4.648438 C 71.378906 4.648438 70.359375 5.753906 70.359375 7.519531 C 70.359375 9.21875 71.378906 10.390625 73.050781 10.390625 C 74.433594 10.390625 75.230469 9.601562 75.507812 8.570312 L 74.402344 8.570312 C 74.304688 8.902344 73.9375 9.476562 73.019531 9.476562 Z M 73 5.53125 C 73.894531 5.53125 74.484375 6.136719 74.484375 6.976562 L 71.464844 6.976562 C 71.464844 6.136719 72.105469 5.53125 73 5.53125 Z M 73 5.53125 "/>
<path style=" stroke:none;fill-rule:nonzero;fill:rgb(0%,0%,0%);fill-opacity:1;" d="M 78.90625 4.667969 C 78.199219 4.667969 77.757812 5.136719 77.472656 5.816406 L 77.453125 5.816406 L 77.453125 4.796875 L 76.347656 4.796875 L 76.347656 10.230469 L 77.453125 10.230469 L 77.453125 7.453125 C 77.453125 6.296875 78.304688 5.574219 79.371094 5.753906 L 79.390625 5.753906 L 79.390625 4.699219 C 79.230469 4.679688 79.09375 4.667969 78.90625 4.667969 Z M 78.90625 4.667969 "/>
<path style=" stroke:none;fill-rule:nonzero;fill:rgb(0%,0%,0%);fill-opacity:1;" d="M 82.96875 4.648438 C 82.0625 4.648438 81.507812 5.074219 81.222656 5.5 L 81.199219 5.5 L 81.199219 2.625 L 80.09375 2.625 L 80.09375 10.230469 L 81.199219 10.230469 L 81.199219 6.925781 C 81.199219 6.113281 81.78125 5.59375 82.589844 5.59375 C 83.359375 5.59375 83.664062 6.0625 83.664062 6.796875 L 83.664062 10.230469 L 84.78125 10.230469 L 84.78125 6.476562 C 84.78125 5.234375 83.988281 4.648438 82.96875 4.648438 Z M 82.96875 4.648438 "/>
<path style=" stroke:none;fill-rule:nonzero;fill:rgb(0%,0%,0%);fill-opacity:1;" d="M 89.042969 6.222656 C 89.042969 6.742188 88.535156 6.847656 87.707031 7.007812 C 86.359375 7.273438 85.484375 7.644531 85.484375 8.835938 C 85.484375 9.75 86.15625 10.390625 87.253906 10.390625 C 88.085938 10.390625 88.695312 10.058594 89.03125 9.582031 L 89.054688 9.582031 C 89.15625 10.113281 89.433594 10.324219 90.019531 10.324219 C 90.230469 10.324219 90.414062 10.304688 90.664062 10.207031 L 90.664062 9.675781 C 90.230469 9.71875 90.148438 9.519531 90.148438 9.136719 L 90.148438 6.550781 C 90.148438 5.105469 89.265625 4.648438 88.074219 4.648438 C 86.453125 4.648438 85.789062 5.464844 85.738281 6.507812 L 86.8125 6.507812 C 86.863281 5.804688 87.191406 5.53125 88.074219 5.53125 C 88.8125 5.53125 89.042969 5.828125 89.042969 6.222656 Z M 87.496094 9.507812 C 86.894531 9.507812 86.601562 9.230469 86.601562 8.730469 C 86.601562 8.175781 87 7.910156 87.917969 7.710938 C 88.433594 7.605469 88.863281 7.476562 89.042969 7.347656 L 89.042969 8.167969 C 89.042969 9.050781 88.410156 9.507812 87.496094 9.507812 Z M 87.496094 9.507812 "/>
<path style=" stroke:none;fill-rule:nonzero;fill:rgb(0%,0%,0%);fill-opacity:1;" d="M 94.203125 4.648438 C 93.273438 4.648438 92.71875 5.074219 92.433594 5.5 L 92.410156 5.5 L 92.410156 4.796875 L 91.304688 4.796875 L 91.304688 10.230469 L 92.410156 10.230469 L 92.410156 6.925781 C 92.410156 6.113281 92.957031 5.59375 93.8125 5.59375 C 94.570312 5.59375 94.875 6.0625 94.875 6.796875 L 94.875 10.230469 L 95.988281 10.230469 L 95.988281 6.476562 C 95.988281 5.234375 95.199219 4.648438 94.203125 4.648438 Z M 94.203125 4.648438 "/>
</g>
</svg>
