<svg xmlns="http://www.w3.org/2000/svg" xmlns:xlink="http://www.w3.org/1999/xlink" width="500" zoomAndPan="magnify" viewBox="0 0 375 374.999991" height="500" preserveAspectRatio="xMidYMid meet" version="1.0"><defs><clipPath id="d965316186"><path d="M 206 7 L 367.75 7 L 367.75 169 L 206 169 Z M 206 7 " clip-rule="nonzero"/></clipPath><clipPath id="c1f900d351"><path d="M 7 206 L 169 206 L 169 367.75 L 7 367.75 Z M 7 206 " clip-rule="nonzero"/></clipPath><clipPath id="21d2154986"><path d="M 206 206 L 367.75 206 L 367.75 367.75 L 206 367.75 Z M 206 206 " clip-rule="nonzero"/></clipPath></defs><path fill="#0c162c" d="M 136.992188 7 L 38.71875 7 C 21.304688 7 7 21.304688 7 38.71875 L 7 136.992188 C 7 154.410156 21.304688 168.714844 38.71875 168.714844 L 136.992188 168.714844 C 154.410156 168.714844 168.714844 154.410156 168.714844 136.992188 L 168.714844 38.71875 C 168.714844 21.304688 154.410156 7 136.992188 7 Z M 136.992188 7 " fill-opacity="1" fill-rule="nonzero"/><g clip-path="url(#d965316186)"><path fill="#0c162c" d="M 336.027344 7 L 237.753906 7 C 220.339844 7 206.03125 21.304688 206.03125 38.71875 L 206.03125 136.992188 C 206.03125 154.410156 220.339844 168.714844 237.753906 168.714844 L 336.027344 168.714844 C 353.441406 168.714844 367.75 154.410156 367.75 136.992188 L 367.75 38.71875 C 367.75 21.304688 353.441406 7 336.027344 7 Z M 336.027344 7 " fill-opacity="1" fill-rule="nonzero"/></g><g clip-path="url(#c1f900d351)"><path fill="#0c162c" d="M 136.992188 206.03125 L 38.71875 206.03125 C 21.304688 206.03125 7 220.339844 7 237.753906 L 7 336.027344 C 7 353.441406 21.304688 367.75 38.71875 367.75 L 136.992188 367.75 C 154.410156 367.75 168.714844 353.441406 168.714844 336.027344 L 168.714844 237.753906 C 168.714844 220.339844 154.410156 206.03125 136.992188 206.03125 Z M 136.992188 206.03125 " fill-opacity="1" fill-rule="nonzero"/></g><g clip-path="url(#21d2154986)"><path fill="#0c162c" d="M 336.027344 206.03125 L 237.753906 206.03125 C 220.339844 206.03125 206.03125 220.339844 206.03125 237.753906 L 206.03125 336.027344 C 206.03125 353.441406 220.339844 367.75 237.753906 367.75 L 336.027344 367.75 C 353.441406 367.75 367.75 353.441406 367.75 336.027344 L 367.75 237.753906 C 367.75 220.339844 353.441406 206.03125 336.027344 206.03125 Z M 336.027344 206.03125 " fill-opacity="1" fill-rule="nonzero"/></g></svg>